/* XPM */
static char *_a35e3c4df09404fa19e3eabb81cded8rjXaJIkljdIEx8Nv[] = {
/* columns rows colors chars-per-pixel */
"64 64 256 2 ",
"   c None",
".  c #7C5D38",
"X  c #7C5B27",
"o  c #765E49",
"O  c #87580D",
"+  c #864F13",
"@  c #895917",
"#  c #925D1A",
"$  c #864F0D",
"%  c #8B6416",
"&  c #94631D",
"*  c #98691C",
"=  c #96781C",
"-  c #965D24",
";  c #8B5C27",
":  c #966422",
">  c #9C6424",
",  c #9D6B23",
"<  c #996A29",
"1  c #9D7628",
"2  c #966938",
"3  c #916C36",
"4  c #A36C2B",
"5  c #A56A28",
"6  c #A5732C",
"7  c #AD732D",
"8  c #AC7A2C",
"9  c #A37729",
"0  c #B2762E",
"q  c #B37B2D",
"w  c #B97D2C",
"e  c #A76C36",
"r  c #AC7534",
"t  c #AD7B33",
"y  c #AA7937",
"u  c #B27633",
"i  c #B47C33",
"p  c #B97C32",
"a  c #B47D3A",
"s  c #B97C3B",
"d  c #B7763E",
"f  c #B36F30",
"g  c #A0662B",
"h  c #8B7248",
"j  c #8A7560",
"k  c #A9812B",
"l  c #B6852D",
"z  c #AD8434",
"x  c #AC8638",
"c  c #B48335",
"v  c #B98434",
"b  c #B48C35",
"n  c #BB8A34",
"m  c #B5833B",
"M  c #BB853C",
"N  c #B48B3C",
"B  c #BC8A3C",
"V  c #BC923B",
"C  c #BD993B",
"Z  c #B79639",
"A  c #B29430",
"S  c #A98C27",
"D  c #C28B3D",
"F  c #C28937",
"G  c #C2943D",
"H  c #C49A3C",
"J  c #C69739",
"K  c #C8A43C",
"L  c #938257",
"P  c #B58341",
"I  c #BB8641",
"U  c #B58B43",
"Y  c #BC8C42",
"T  c #B9884A",
"R  c #BD9243",
"E  c #B89647",
"W  c #BB9854",
"Q  c #AB8E4E",
"!  c #BDA445",
"~  c #BCA257",
"^  c #90896B",
"/  c #AD9869",
"(  c #A9AA76",
")  c #B8A97A",
"_  c #B8A46D",
"`  c #9FA56D",
"'  c #C28E42",
"]  c #C18844",
"[  c #C29443",
"{  c #C59B44",
"}  c #CA9C44",
"|  c #C4954A",
" . c #C59C4B",
".. c #CB9B4C",
"X. c #C99448",
"o. c #C79952",
"O. c #D09B4F",
"+. c #CBA343",
"@. c #CCA34C",
"#. c #CCAB4C",
"$. c #C5A748",
"%. c #D3A749",
"&. c #CAB34B",
"*. c #D6B44D",
"=. c #CCA452",
"-. c #CCAB53",
";. c #C7A858",
":. c #D4A354",
">. c #D3AC54",
",. c #D3AD5B",
"<. c #D7A95A",
"1. c #CEB254",
"2. c #CBB559",
"3. c #D3B454",
"4. c #DAB455",
"5. c #D5BC54",
"6. c #D4B45B",
"7. c #DAB45B",
"8. c #D5BC5C",
"9. c #DBBC5C",
"0. c #DBBB55",
"q. c #E3BB5C",
"w. c #C7A865",
"e. c #DAAD64",
"r. c #CBB86C",
"t. c #D4BD64",
"y. c #D8B867",
"u. c #CAB779",
"i. c #D6BC75",
"p. c #C7AA79",
"a. c #E4BB67",
"s. c #E2B66E",
"d. c #CD9E72",
"f. c #DCC54C",
"g. c #DAC25D",
"h. c #DAC558",
"j. c #CFC15B",
"k. c #E3C848",
"l. c #E6C75A",
"z. c #EBD654",
"x. c #EDD84F",
"c. c #EEE35E",
"v. c #DCC462",
"b. c #DCC26C",
"n. c #D8C769",
"m. c #DAC579",
"M. c #DDD67C",
"N. c #DCD16B",
"B. c #E4C464",
"V. c #E3CB66",
"C. c #E8C96B",
"Z. c #EBD46C",
"A. c #ECDB6C",
"S. c #E5D568",
"D. c #F3DC6B",
"F. c #E8C973",
"G. c #EBD473",
"H. c #EDDB7C",
"J. c #E9D776",
"K. c #F3DA74",
"L. c #F2DC7B",
"P. c #F5D77A",
"I. c #F1C971",
"U. c #EDE46E",
"Y. c #EEE869",
"T. c #F2E46C",
"R. c #F2EA6D",
"E. c #F7EB67",
"W. c #F9F16B",
"Q. c #EDE474",
"!. c #EEEA7B",
"~. c #EBE678",
"^. c #F2E474",
"/. c #F3EB74",
"(. c #F4E47C",
"). c #F4EB7C",
"_. c #F9ED7D",
"`. c #FAE778",
"'. c #F5F37C",
"]. c #FBF37B",
"[. c #F7F378",
"{. c #AFAE90",
"}. c #B9B9A9",
"|. c #B3AFAA",
" X c #9F9E88",
".X c #CAB88B",
"XX c #C2BAB3",
"oX c #BEC0AC",
"OX c #DAC787",
"+X c #D1C895",
"@X c #E9D888",
"#X c #F6DC85",
"$X c #E9DA94",
"%X c #F1D391",
"&X c #ECE587",
"*X c #F3E584",
"=X c #F5EB83",
"-X c #FCEC84",
";X c #F4E58B",
":X c #F3EB8B",
">X c #FBED8B",
",X c #F9E584",
"<X c #F5F283",
"1X c #FBF383",
"2X c #FBF38C",
"3X c #F7F78A",
"4X c #E7E497",
"5X c #F3EC94",
"6X c #F6E998",
"7X c #FAF495",
"8X c #F4F49B",
"9X c #FBF49B",
"0X c #F9F795",
"qX c #C9C7A5",
"wX c #D7D4A8",
"eX c #C7C8BA",
"rX c #D6D4B6",
"tX c #CFD1B5",
"yX c #E8DAA5",
"uX c #E9D9AC",
"iX c #EAE7A9",
"pX c #F5EAA7",
"aX c #FBF5A3",
"sX c #FBF5AB",
"dX c #FDFAAB",
"fX c #F7F5A7",
"gX c #EBE8B8",
"hX c #F5EAB5",
"jX c #FCF5B4",
"kX c #FDF9B4",
"lX c #F4F2BB",
"zX c #FBF6BB",
"xX c #FCFABB",
"cX c #F5F5B6",
"vX c #CCCAC4",
"bX c #D3CEC6",
"nX c #DAD7C8",
"mX c #DCDAD2",
"MX c #CCD4CE",
"NX c #E3DECD",
"BX c #EAE8C6",
"VX c #F4E9C9",
"CX c #FCF5C3",
"ZX c #FCFACC",
"AX c #FAF8C7",
"SX c #E8E5D8",
"DX c #F9EFD7",
"FX c #FDFAD8",
"GX c #EFF0C8",
"HX c #FDFCE4",
"JX c #FCFCEC",
"KX c #F7F6E9",
"LX c #FCFCF3",
"PX c #FCFCFA",
"IX c #F4F9F4",
"UX c #ECE8E4",
/* pixels */
"                                                                                                                                ",
"                                                    mXmXmXSXDXBXgXgXBXNXnXtXbX                                                  ",
"                                              mXSXUXJXHXHXFXAXxXfX4XfXzXCXAXFXGXBXbX                                            ",
"                                        mXSXKXJXJXHXFXFXAXcXCXAXZXgX+X:X-X:X:X7XaXcXlXBXNX                                      ",
"                                  mXbXKXJXJXJXHXHXHXFXAXcXxXxXCXCXxX4XN.1X/.].[.<X:X8XjXCXGXnX                                  ",
"                                bXUXPXLXJXJXHXHXHXFXFXAXkXkXkXdXdXdXdXM.~.-X_././.[.-X=X3XdXCXBXtX                              ",
"                            vXSXPXPXPXLXLXJXHXHXHXFXZXCXkXdXdXdXaXfXfXfXn.Q./.W.W.W.W.W._.=X5XfXlXrXtX                          ",
"                          vXIXPXLXLXLXIXLXJXJXFXCXwXuXxXdX0X0X0X0X0X0XdX@X8.$.+.h.R.W.Y.W.Y./.!.5X9XpX}.                        ",
"                        bXJXJXLXPXPXPXPXKXDXgX+X.XOXzXCXdX0X9X7X0X0X3X9X9Xn.#.C l A k.T.W.E.W.T.Q.&XaXlX|.}.                    ",
"                    vXnXKXJXJXJXIXPXLXDXuXu.p.i.OX4XxXkX9X9X0X>X3X2X3X3X2X5X8.l.*.H n A K z.E.E.Y.Y./.5XcXtXoX                  ",
"                    SXLXLXIXLXLXKXKXVX.X_ i.%XpXjXsXkXfX7X7X0Xn.V.1X].].3X7XV.l.`.K.*.H k S &.D.Y.E.Y.U.8XlXtXoX                ",
"                  mXKXJXPXPXPXJXDXuX/ p.OX%XpXzXhXzXdX8X3X0X7X! C `.].].3X7XK.f.E.W.W.z.! k = A A.c.c.Y.~.pXAXeX                ",
"                NXGXFXFXJXLXJXVXp._ u.%XpXdXcXlXhXkX8X3X2X7XG.$.1.&.1X].1X2X_.&.l.W.E.E.T.g.Z = S l.c.E.Q.&XpXZXvX              ",
"              nXDXCXxXcXZXFXVX_ i..XyXjXjXcXcXgXhXkX3X3X2X>X! C.#X! S.'.1X1X,Xg.&.W.E.W.R.W.P.l.% O #.Q.(.Q.&XiXZXvX            ",
"              UXJXKXAXxXCXhXd.w.i.pXjXjXkXzXcXiXcXfX3X'.1XK.A (.2Xt.&.1X'.<X2XZ.C R.R.[.R.T.W.`.2.% ; y.D.Y.~.4XfXgXoX          ",
"            SXLXPXPXHXFXgXW W i.pXsXjXjXsXfXfXgXxX8X3X'.-X&.&.1X1XL.Z (.).<X-X(.K z.R././.R.^.T.^.;.* % 8.U.U.~.&XcXqX          ",
"          nXGXHXLXLXJXHXp.| ;.6XsXsXsXfX6X8X4XgXkX7X<X1X).Z L.'.-X1X$.N.).<X-X-X5.f././.^././.R.).(.t.O % n.A.U.Q.$XCX|.        ",
"          uXfXhXAXFXHXBXQ o.@XaXaXaXaX6X5X:X$XzXdX2X1X].A.! ).'.).-Xv.5.-X'.<X-XV.5.`././.^./.R.Y./.(.U % 1 A.U.U.J.iXgX        ",
"        bXgX5X&X8XcXhX/ o.F.6X9X9X9X7X>X:X&X4XzXdX1X1X1Xg.1.).[.'.-XK.&.=X=X=X-XA.&.`././.`./.R.R.^.(.F.X % 4.A.A.J.@XhX}.      ",
"        uXpX:X'.).;Xw.E w.>X7X7X2X2X<X=X).&X@XxXaX1X].-X1.v.^.!.[./.,X$.=X)._.,XL.&./.T.R.K.^.Y.Y.T.T.(.6.O 9 D.S.Z.M.OX+X      ",
"      rXiX;X,X_.).@XN Y H.3X1X1X3X<X).).!.~.$XxX8X1X1X1X-.G.^././._.-X$.&X/.)._.(.! Q.R.R.R.^.U./.Q.U.U.K.Z X #.K.V.B.N.4X{.    ",
"      wX6X*X/._.-X;.C +.-X<X<X2X-X-X_.`.(.H.@XCX8X'.].-X$.K.(././._.>X2.#X(.).*X*XZ (./.^.T.^./.Q.Q.^.T.D.B.% 1 I.B.v.n.$X{.    ",
"      wX&X_.[.).#XN V C.=X<X).j.8.g.v.V.V.M.@XAX8X).].-XW K.~././.).-Xn.H.&X(.L.*XA K.K.Z.V.g.8.1.1.2.A.Z.I.9 % $.B.8.t.m.wXMX  ",
"    eXiX^.`./._.t.N -.,X=X).-XC.V V b A b E j.xX8X].].-X$.A./././.).:XH.#XL.K.P.#X9 Z b z l z z $.,.g.8.4.%.U O 1 a.9.y.y.4X}.  ",
"    oX4X/././.(.E V C.-X).).,XL.{ N R O.{ E t.kX8X'.].-X$.G.(./.[./.-X;X@XH.K.H.@X1 C } ..=.;.e.s.,.,.-.@.{ Y O % a.8.8.e.$X{.  ",
"    qX6X/././.G.x W H.*X).(.(.`.G.! N ;.P.#X@XdXaX'.].].t.S././.!.!.*X6XG.G.Z.F.F.z C.C.y.y.y.F.;.=. .{ [ [ Y & # ;.1.1.<.b.OX  ",
"    $X;X).!.).y.a =.,X).!.).)._.`.G.E N ,.L.H.fX9X-X]._.H.V.)././.!.&X;XF.V.V.C.y.9 7.>.>.,.F.=.E R R B B R B , ; E 3.;.:.1.M.  ",
"    yX;X!.&X=X-.P -.:X(./.^./.!.`.(.F.R b 3.G.6XaX'.W._.;XK.Q.~.R.<X&X$Xb.B.q.t.$.y :.@.@.I.e.N R D ' R B D [ y - c 1.1.;.&.M.  ",
"  qX4X;X=X'.*XE U 6.).Q./.(.^.R.T.Q.(.3.b N y.OX7X*X*X;X6X7X>X;X&X$X@Xb.6.4.7.<.k k  . .s.,.x U Y ] ] D B ' D M % y 4...o.o.m.qX",
"  {.5X*X).=X*XN R 8.(./.^.^.^.R.R./.Q.L.E Q r.6X>X-X(.J.F.n.n.n.n.t.n.e.6.#.>..., Y <.,.F.x U U I I D ] B ' ' M : 6 >. .X.o.n.rX",
"  {.3X(.).!.*Xx | a.^.Q.Q.^.U.Y.Q.Q.!.=XH.6XpX;XJ.V.v.V.v.g.8.6.6.,.t.>.-.@.@.Y 6 | s.@Xy.U P T I I s ] B B D I : < >.| | | r.wX",
"  ( 5X~.).~.H.z E y.(.Q.T.T.A.Q.Q.~.;X8X6X@XF.8.t.5.9.5.0.3.5.6.4.,.>.=.=.....t t m t U e.%Xi.| I I s F M B B B : < ..Y Y R ~ wX",
"  ( :XK.Q.~.H.z | 6.(.Q.U.^.L.@X@X6XaX4Xn.g.5.0.*.*.3.2.3.3.,.4.<.O.=.......[ , M c i c y I s.#X:.F ] s M N B M > < X.I I P ;.qX",
"  ( &XS.Z.A.@Xz o.*.(.Q.A.A.S.J.sX6X@Xb.n.5.4.3.&.>.6.,.>.E E x N R  .{ ..| m 6 M p q w i n c ..s.:.v v M m M M > 5 ' M s a ~ qX",
"  ` &XV.N.S.H.y O.$.^.Q.A.N.t.4XpXF.a.9.5.6.6.,.>.-.U x k N U , O E | R [ Y 7 m p w w w p q v u X.I.:.c c m M s > 5 F s s y ~ qX",
"  ` H.g.g.N.J.U ..H D.S.j.r.pX%Xr.y.t.4.4.>.>.o.N : y  .=.=. .U < E Y B I I , X.} v w w p w i q c [ a.O.z c i d 5 5 d a s 7 ~ qX",
"  ^ m.j.8.j.J.o.R { Z.&.y.hX%Xt.t.6.,.1.-.>.c % : 1 # U | [ R T 6 t B c a < > r n O.} s p i p i q 8 M a.[ 7 m 7 5 u s u d a r.}.",
"   Xr.8.3.6.t.r.C [ 2.W yXuXi.3.1.1.1.;.~ z : y U P : 6 M B M P a , t y y @ 4 a 8 q } :.I p i i i i a X.e.c c 4 > u s d d m i.  ",
"  }./ #.%.@.$.i.N O.w.OX6Xr.e.;.3.-.=.U < < P I I P z : r m m d s a 5 6 @ - e r 7 7 q v O.' a i u u i m O.:.z , > i p p s P .X  ",
"    L $.H ..E n.Z o..XhXr.-.>.<.:.=.N : y P I I c m m B > a 7 i i i i 4 # u f u 0 q u i a O.X.v p p p p B  .m , 5 M w s i E .X  ",
"    j ~ R | V 2.;.W pXOXw.>.>.<.=.m : y I m m c m N <.<.y 5 f u u q u i a I i q u q q c p q [ O.p p p M N R { , 5 M F p u w..X  ",
"    {.Q I Y c U n.m.$Xw.;.=.@.O.y : e a c c c c J <.} t y 6 5 r u p p m i [ :.Y q p c q p i p B X.p c m B V { 7 c M w s s u.eX  ",
"      L z p i k ,.pXw.| .. .@.z : a x m z c { a.a.n 7 q 8 t r 5 u i p v B n G 7.q.G c v p v v l [ X.n b B V { v ' D F s | )     ",
"      ^ y 6 r y W $XQ E X.[ V * 6 x z N =.a.F.O.8 8 i r r 6 y 4 5 a i v n n G F O.a.4.G n n n B l ..B n V G { G B F F s w. X    ",
"      {.h 7 f e F.w.T I R Y 9 6 =.,.a.q.>.[ z 7 u u r y y y > + @ # 8 l n F n V F H %.7.a.9.>.@.} } %.n C H H ..n F ] C u.eX    ",
"        j 2 e T %XT I s M c m <.=.[ n k q i r i u r r u e + - e r # $ 6 n F J J H H C C C { #.4.l.a.q.{ H H { +.V B R ~ (       ",
"        {.h e o.s.y s s i y m c q q q q u u r i r r f - + - ] T t y 6 O * n D J J G H C C H C H H H H H H +.K @.{ B E m.{.      ",
"          j 2 e.;.i i i i c i u i q u t u y r y 7 5 $ $ - e i ' 7 t a.i O O u [ G G C { { J } H J +.H } } +.+.@.@.N y.{.        ",
"            h w.b i u u u t i u u u i y y r 4 # + + > 5 0 7 8 X.q ] e.a a 4 # # 9 M [ G G } J H H J K J } +.+.%.*.E u. X        ",
"             Xy 7 r d a y a u u y r r < - + + # - 7 r 6 0 0 q F n ..:.c i M c u * $ # 6 M J { ..} H K K @.%.+.+.-.Q {.          ",
"              h ; - - > < > - @ ; @ X $ + - 4 5 f 4 f 7 0 u p F B <.F l n m v ] M i * # # * < 6 t A A [ E [ A b x ^             ",
"              |.o 2 - > - - > ; + + d T P m t 7 7 0 0 0 p p p w O.%.F l v v F D F D D B R { R I N z k z n n C ~ .X|.            ",
"                |.. 2 e e 7 e f 2 - < e.<.X.n n q 0 p p p v l w F D F F F F F F F F J %.7.y.H.`.Z.l.V.k.k.0.i.qX|.              ",
"                  ^ . - > 4 f f r t < 4 :.a.O.G c v l w w l l l w F M ] D F J F J K >.q.m.6X6XA.z.x.z.k.k.5.qX}.                ",
"                    ^ o 2 4 e 7 t c c c 8 n >.7.4...G n l l l F F F F F F J } %.4.y.OXyXZXFXgX~.D.x.D.S.n.wXeX                  ",
"                      {.o 2 6 7 m N m [ | [ Z E #.7.q.q.0.*.%.%.K %.%.%.>.q.q.B.I.6XCXHXIXIXFXkXY.T.A.4XwX                      ",
"                        }.. 3 8 i M Y o.o.| +.$.K J } >.q.l.q.q.l.l.a.a.V.I.#X;X;XcXHXPXPXLXLXAX&XQ.4XwX                        ",
"                            / 3 7 8 m T | | ..+.K #.%.#.>.4.9.B.C.C.Z.A.D.Z.Z.S.S.fXJXPXPXPXIXHXgXwXrX                          ",
"                              }.h L y v D X...@.+.&.&.&.*.f.0.f.l.f.f.f.k.x.x.x.c.;XHXLXLXLXPXIXbX                              ",
"                                   Xh x M v J O.=.$.#.>.3.3.0.q.k.l.l.l.k.x.x.x.z.@XDXLXIXKXmXvX                                ",
"                                      qX` / E $.+.$.+.%.%.*.*.*.0.0.q.B.l.V.S.S.&XiXGXSXMXMX                                    ",
"                                            .X) _ 2.3.&.%.&.*.*.6.t.b.m.@XiXcXGXBXrXeX                                          ",
"                                                  u.wX+X+X.XOX$XyXyXuXhXBXSX                                                    ",
"                                                                nX                                                              "
};
