/* XPM */
static char *_84dbb77c162402acaf35eff30aad193AM1chJZxGWsj2QDl[] = {
/* columns rows colors chars-per-pixel */
"64 64 232 2 ",
"   c None",
".  c #1C1546",
"X  c #1D174A",
"o  c #1D194D",
"O  c #1D1C53",
"+  c #1D1E5B",
"@  c #201E57",
"#  c #1D215C",
"$  c #21225C",
"%  c #1D2464",
"&  c #1D296C",
"*  c #1E266A",
"=  c #1D2D73",
"-  c #1E2D79",
";  c #1D337C",
":  c #1C3176",
">  c #212563",
",  c #232A6C",
"<  c #202967",
"1  c #242D73",
"2  c #242F78",
"3  c #233175",
"4  c #24347C",
"5  c #29327B",
"6  c #3D474E",
"7  c #1D3582",
"8  c #1E3985",
"9  c #1E3C8C",
"0  c #1D3788",
"q  c #1E3E91",
"w  c #223583",
"e  c #233985",
"r  c #223B8B",
"t  c #2B3C8A",
"y  c #2A3984",
"u  c #313D8E",
"i  c #233C92",
"p  c #293D95",
"a  c #1E408E",
"s  c #1E4394",
"d  c #1E469A",
"f  c #1E4A9D",
"g  c #29418E",
"h  c #234394",
"j  c #2D4393",
"k  c #23449B",
"l  c #2A439C",
"z  c #25499D",
"x  c #334494",
"c  c #34469A",
"v  c #3B4A9D",
"b  c #35499A",
"n  c #1E4CA3",
"m  c #1E54AB",
"M  c #1F5CB4",
"N  c #2C46A3",
"B  c #244CA3",
"V  c #2A4CA5",
"C  c #244DAB",
"Z  c #2C4CAB",
"A  c #2345A1",
"S  c #3B4DA2",
"D  c #3449A9",
"F  c #2452AB",
"G  c #2B52AC",
"H  c #2753A9",
"J  c #3952AA",
"K  c #2A4EB7",
"L  c #344CB3",
"P  c #2355B3",
"I  c #2A54B2",
"U  c #225AB4",
"Y  c #2B5BB4",
"T  c #2953BC",
"R  c #225DBA",
"E  c #2859BB",
"W  c #3557B7",
"Q  c #1E62BB",
"!  c #2262BD",
"~  c #2C62BB",
"^  c #3363BD",
"/  c #434EA4",
"(  c #4455AB",
")  c #4754A9",
"_  c #4C5BB3",
"`  c #4558B7",
"'  c #525AB2",
"]  c #5362BA",
"[  c #5965BD",
"{  c #4862BB",
"}  c #2A53C4",
"|  c #2A58C6",
" . c #385BC4",
".. c #2C5CD2",
"X. c #1F6BC4",
"o. c #1F77D3",
"O. c #2364C3",
"+. c #216AC5",
"@. c #236CCB",
"#. c #2A67C8",
"$. c #3363C3",
"%. c #336BC5",
"&. c #3868C9",
"*. c #2371CD",
"=. c #2C73CB",
"-. c #3772CC",
";. c #2A69D5",
":. c #346BD8",
">. c #2474D3",
",. c #2C73D3",
"<. c #247ADA",
"1. c #2A79D8",
"2. c #3C7AD5",
"3. c #3777D8",
"4. c #2A7CE2",
"5. c #337CE2",
"6. c #387CE6",
"7. c #3269E3",
"8. c #1F5BC2",
"9. c #4968C7",
"0. c #5A6CC4",
"q. c #5A73CA",
"w. c #4279D7",
"e. c #567BD5",
"r. c #496DD0",
"t. c #6273CD",
"y. c #677AD4",
"u. c #447AE2",
"i. c #415DC5",
"p. c #2683DD",
"a. c #3785DC",
"s. c #2484E3",
"d. c #288AE7",
"f. c #348BEC",
"g. c #3787E8",
"h. c #2595EC",
"j. c #3994EB",
"k. c #2A98F3",
"l. c #3997F4",
"z. c #378AF2",
"x. c #28A7F7",
"c. c #39A7F9",
"v. c #28B8FA",
"b. c #38B8FC",
"n. c #33A2ED",
"m. c #1F8EE9",
"M. c #4484DD",
"N. c #5B84DC",
"B. c #4B9FD4",
"V. c #6A84DB",
"C. c #7488DE",
"Z. c #4788E4",
"A. c #568AE4",
"S. c #4996EC",
"D. c #5895ED",
"F. c #4599F5",
"G. c #539BF1",
"H. c #768CE5",
"J. c #6896E7",
"K. c #7997EA",
"L. c #6994EC",
"P. c #47A6F9",
"I. c #56A8F9",
"U. c #43B4FC",
"Y. c #43BBFD",
"T. c #4CB7FD",
"R. c #58B7FC",
"E. c #51B1E9",
"W. c #68AAF8",
"Q. c #67B7FC",
"!. c #74BBFA",
"~. c #6CADF0",
"^. c #54A5D7",
"/. c #2AC9FC",
"(. c #3CCCFC",
"). c #37C6FC",
"_. c #27D5FC",
"`. c #38D8FD",
"'. c #39E9FD",
"]. c #2FEAFD",
"[. c #4BCCFC",
"{. c #46C8FC",
"}. c #59C6FC",
"|. c #45D6FB",
" X c #57D9FC",
".X c #67C8FC",
"XX c #76C9FB",
"oX c #63D3FC",
"OX c #67D9FC",
"+X c #78D6FB",
"@X c #4BE6FB",
"#X c #58E4FC",
"$X c #56F3FE",
"%X c #66E4FB",
"&X c #79E6FC",
"*X c #65F3FE",
"=X c #8698EB",
"-X c #999AEE",
";X c #9898F1",
":X c #A894EF",
">X c #87AAF6",
",X c #8AB5F8",
"<X c #94AEF6",
"1X c #B8ADF7",
"2X c #86CAFB",
"3X c #86D8FA",
"4X c #98D8F9",
"5X c #9CCDF9",
"6X c #AFD6F9",
"7X c #88E7FB",
"8X c #97E7FB",
"9X c #99F2FD",
"0X c #8FF5FD",
"qX c #A6E6FA",
"wX c #B6EAFC",
"eX c #A3F5FD",
"rX c #ACF4FD",
"tX c #ACFAFE",
"yX c #A6FAFE",
"uX c #B4F3FC",
"iX c #BAF4FC",
"pX c #B4FBFE",
"aX c #BCFDFE",
"sX c #C4FDFE",
"dX c #CBFEFE",
"fX c #C3F4FD",
"gX c #D4FEFE",
"hX c #DCFEFE",
"jX c #D7F3FE",
"kX c #CBECFB",
"lX c #E1FFFF",
"zX c #CDDFFC",
/* pixels */
"                                                      qXqXiXiXiXuXeXaXpXrX                                                      ",
"                                              wXwXiXiXsXiXaX2XoXoX[.+XsXsXaXaXpXtX                                              ",
"                                        iXiXfXfXfXsXaXaXaXaX+X.X3X3X[.OX8XiXsXsXaXaXaXpX                                        ",
"                                    6X6X6X8X8X3X+X#X#X@X|.[.Y.Y.T.T.Y.Y.U.Y.8XdXdXdXdXsXsXaX                                    ",
"                                >X,X<X,X4X4XXXoX&X X|.[.{.|.[.I.L.D.G.U.b.b.[.&XpXdXdXdXdXdXsXsX                                ",
"                            =X-X;X>X2XXXXX.X}..X.XR.{.{.Y.b.c.F.L.H.D.c.Y.(.(.{.{.3XaXdXdXdXgXdXsXsX                            ",
"                          :X:X:X<X2XXX!.Q.}.I.T.I.P.).U.c.F.l.l.l.R.l.c.l.b.(.(.(.{.[.oX8XrXrX+X+X&XOX                          ",
"                        6X:X;X>X2XXXQ.W.W.I.I.I.P.P.{.b.c.6.z.g.6.z.l.l.7.5.b.`.(.`.(.U.Y.T.T.R.}.OXoXXX                        ",
"                      1X:X-X2XXXXXXXQ.I.I.I.F.F.F.P.(.).c.6.:.6.6.:.6.g.7.:.6.).`.'.'.(.{.Y.T.{.[. X}.oXW.Q.                    ",
"                    :X:X;X>X>X!.XX.X}.R.R.T.U.F.c.F.).(.b.z.:.5.f.4.5.d.....7.c.`.'.'.'.`.(.{.{.@X X}.}.Q.Q.XX                  ",
"                  1X:X-X;X=XK.W.Q.oX X XT.{.T.F.F.l.b.).b.g.,.5.1.5.1.5.....7.z.`.].'.'.'.|.`.|.@X{.}.}.R..XoX.X                ",
"                zX:X:X-X=XH.H.L.R.#X$X@X[.Y.U.P.l.z.g.l.l.5.:.3.:.;.5.1.....4.k._.`.].`.).).(.(.(.{.{.[.[.}.OXOXqX              ",
"              jXzX<X>X=XH.K.W.W.}.#X$X$X[.c.U.c.l.6.:.3.1.:.,.,.E  .;.,.} } ;.4.)._.].).c.c.b.c.c.U.U.{.[. X#X$X&X              ",
"            jXhX6X,X<X=XL.L.W.R.}.[.|.@X|.P.F.l.6.&... .$.;.,.#.K T | ,.T #...;.d.).x.z.d.z.c.c.z.F.F.U.[.[. X#XOXfX            ",
"          jXlXlXjX5X>XH.y.L.G.I.T.I.P.T.U.l.u.6. .} L W L K } K E T T @.K | | | ;.4.7.:.7.5.l.c.6.l.z.F.Y.[.[.}.}.qXgX          ",
"          jXlXlXlX6XK.H.y.N.D.A.D.A.u.u.w.3.&. .W L Z Z N N N K G #.T E T } } | ..| ..} ....z.v.l.z.u.6.z.P.T.I..X+XgXgX        ",
"        jXhXlXlXhXwXK.~.V.N.e.A.Z.u.r.i.i.&.&.W W Z Z Z N p N A C K K M 8.} 8.} } } } } }  .p.l.z.g.3.:.u.Z.F.P.I.XXqXhX        ",
"        lXlXlXhXlXgX3X~.N.q.e.r.9.9.i.` L ` &. .J L Z p N p p N C C n T } 8.} 8...} } } } T 3.g.3.:.:.i.w.l.F.P.P.I.Q.fXgX      ",
"      jXlXlXhXhXgXgX3XJ.N.q.{ ' ) ) ` L L J L D N N N A p i i p P C C T M | 8.m.x.;.} K K T :.1.-.:. .&.-.S.S.F.F.G.I.XXgX      ",
"      hXlXhXhXhXgXqX~.N.e.0.{ ) ) / / S S p c j p p l l i w w i N A P P 8.m.m._._.v.>.| T | #.#.$.$. .&.&.j.j.Z.S.G.I.R.iXgX    ",
"    jXlXlXhXhXgXuX~.N.[ q.B.q.{ ( / S S v u u p p t p l p w w w i A M P 8.m.x._._._.x.X.T #.| T #. .W &.-.2.M.M.Z.S.I.R.qXgX    ",
"    hXlXlXhXhXqX~.N.N.N.e.q.-.{ ` J v c c p u u t t w p i w w w 0 i P M 8.8.h._.v.v.<.8.P | G I Y I Y ^ $.&.-.w.M.Z.I.R.qXgX    ",
"    lXlXlXwX,X~.J.V.q.0._ _ ) ) S W J b v p u t y y r r w w w w w 0 C M P 8.m.x.x.m.@.8.C Z N V Z Z G W  .$.&.w.2.Z.F.}.8XgXdX  ",
"  jXlXhXjX,XK.J.B.q.q.] { ) ) / v S J J p u y 5 y w r w w w w - - 7 n C m X.<.m.m.8.8.C C C B l l N D W ^ &.-.w.2.M.S.}.8XgXgX  ",
"  hXhXhX6XK.V.J.[ [ [ ] _ ) S v v v x x x g 5 5 5 5 5 g w 2 = 1 * * 0 A A P @.o.8.n A A C A k l l V G ~ ^ -.-.a.2.Z.S.[.8XdXgX  ",
"  hXlXkX>XC.~.t.0.[ ' _ ) ( S v x x x x x x 5 , , , 3 4 w 2 > * % * - i i A 8.8.n i q A A A B B V V G ~ ^ ^ -.M.2.Z.F.T.4XgXgX  ",
"  hXhX<XH.C.J.t.[ ' ' ) ) ) S v x x x g 5 5 3 3 , < < 3 1 , $ @ + + % w 0 d m q 9 9 i q i C C F V V Y ~ %.=.^ a.g.a.F.E.2XdXgXdX",
"6XwX5X>XC.C.t.[ ' ' ) / ) / v v b x j x 5 5 3 , , < $ $ , > @ @ @ @ + * 7 q q q q q q i i A F B V H ~ ^ ^ %.=.a.2.M.S.S.R.iXgXdX",
"-X~.K.K.C.y.t.[ [ ' ) ) / v b b b b j j j 4 3 , $ $ $ @ $ o @ X o o O + = ; 7 9 8 7 w 8 9 h z z B H Y %.~ a.^ a.2.w.M.M.S.E.dXdX",
"-X;X=XK.C.y.t.[ ' ' ) ( ) ) S b b j b g g 4 4 3 < $ $ @ o o X X o o o + % = : : = - ; 7 r a a s z H ! ~ p.~ ^ ^ %.-.w.M.S.G.qXgX",
":X-X=X=XH.y.t.[ ' _ ) ( J S b x j x g g g 4 4 3 , $ $ o o X X X X X o O + # % % & = - - ; w 8 g h H ~ ~ =.a.%.^ ^ &.r.M.M.G.R.fX",
":X-X=XH.C.t.[ ] ' _ ) ) S S b x x g g 4 4 4 4 4 , $ o o X X X X . X o o o O + % & & & 4 ; 8 g g h B U ~ a.=.^ ^ ^ { -.M.M.S.G.4X",
"-X-X=XC.y.t.0.] _ _ ( / v x x x x x g g 5 3 3 < < # # o . . . . . . X X X O O # # & : ; 8 a a h h h H G G Y ^ J ^ -.^ M.B.S.G.I.",
"<X<XK.L.V.t.0.] _ ( ( J v x x u 5 x 5 4 4 3 < > # # o X o . . . . . . X X O + # < & : ; 8 8 8 a r h j V G Y Y ^ ^ a.r.w.M.A.S.P.",
"2X>XW.W.V.t.q.] _ ( / J / x u u g 5 4 5 3 , < > $ o O X . . . . . X . X o o + + < : ; a 8 8 e g g h h z G ^ ~ ^ -.{ a.w.M.S.E.+X",
"2X!.XX!.W.y.e.9.{ ( ( ( S b u x x 5 4 5 3 3 < < $ O o o o . . . . . X O + + # % : ; ; ; 8 ; 8 h h h h l V Y ~ %.-.a.a.M.S.I.iXgX",
"wX2XqX4XQ.L.A.e.{ ` ( J J c j p g g g g 4 4 ; : < # O o o . . . . o o O + % & = ; ; a a a a a h h h j z G Y ~ =.=.2.a.j.E.qXdXdX",
"  wXsXfXXXqXD.N.9.` J J b c x j x j g 4 4 4 g ; , # # @ # o o O o o o O O # & : ; ; a a h s s k h h h V Y ~ %.-.2.a.S.P.8XdXdXiX",
"  dXdXdXOXqXR.e.r.` ( J S c c b b j h h g f h ; < < # @ O o O # o O O O # % & : a a a f s d s s h h z B I ~ %.=.g.n.3XrXgXdXdXwX",
"  fXgXkXXX.XQ.G.i.` L J G J Z N z z z f H f a ; : < $ # # # % # O O # # & & & : ; a f f s d s k B B B H I ~ %.p.n.eXdXdXdXdXsX  ",
"  fXdXkXXX.XR.I.r.i.` `  .L G G H H H B B z a e : = = = % & : # # # # & = 7 = = 7 0 9 q n n C B B B B H H ~ p.j.qXdXdXdXgXdXaX  ",
"    sXjXXX.XR.I.r.i.L L W L J G H H H B B B k 8 ; 4 ; 4 : : ; # # % & & 7 0 7 7 7 7 9 q q d f B B B B G ~ ~ a.~.dXdXdXdXdXdXuX  ",
"    fXgX2XQ.R.R.u.i.L ` L Z G G G V H H B H B f h f f s ; 8 a & % & & = 0 q 0 0 q q q q q q d n B C F Y ~ =.3.n.uXdXdXdXdXaXuX  ",
"    wXfX4XW.Q.R.D.r.L L L D G Z G G H H F U U m M M m m a s f & = = = : 0 d m d q f f f n B n C P U ! ~ ! =.p.a.E.OX+XdXdXiX    ",
"      5X2XQ.I.R.P.u.W D L D Z Z Z F C G U ! ! Q Q M +.X.a m Q ; : 7 7 7 0 0 n m m f Q Q M M 8.O.@.*.*.=.=.,.a.f.n.n.+XdXrX~.    ",
"      ,XXXQ.I.I.I.F.i.D N D Z Z Z I Y U ! ! ! ! ! M X.! m M Q s 7 7 0 0 q s d m X.X.X.X.X.8.M X.*.=.@.1.p.a.p.k.n.XXfXXXG.      ",
"        XXQ.W.I.T.P.r.D D N L Z I E ~ O.O.O.! +.*.Q X.X.Q Q X.m 0 0 q q s d d n X.o.o.o.X.o.X.@.>.@.@.1.p.,.a.n.eXdX2XS.A.      ",
"        2XQ.I.I.I.F.F.} L D L Y E O.O.#.#.+.*.h.p.X.X.Q *.Q Q m q s d d n n n 8.8.o.o.X.X.X.o.<.1.>.1.1.=.p.j..XqX~.l.Z.        ",
"          Q.R.I.P.U.U.:.W  .| | #.#.#.@.@.;.h.v.o.X.X.X.X.@.Q H A n n n m C P M X.o.m.o.@.>.>.>.>.,.>.s.d.d.a.g.f.j.F.~.        ",
"          Q.R.I.F.P.U.l... .$.:.;.;.#.;.;.d./.s.o.X.X.>.o.@.Q U m M C n C P M X.@.<.m.s.@.<.p.<.s.d.f.k.k.f.d.g.j.E.2X          ",
"            .XR.F.F.F.F.g.:.;.;.:.,.,.;.s._.h.4.<.@.@.>.p.*.*.! @.+.O.R M | X.<.<.s.m.x.4.<.h.v.v./.v.v.c.k.f.F.2X3X            ",
"              oXQ.P.l.z.z.6.3.1.4.5.4.4.v./.d.s.<.>.>.<.p.1.>.<.<.@.o.*.@.o.o.s.h.m.x.v.h.d.v._._./.).b.v.c.XX8X2XQ.            ",
"                E.2X3X!.~.g.g.f.h.k.l.v.#X[.x.h.d.4.p.p.1.1.4.f.d.s.p.d.>.p.p.h.x.v.Y.).h.n.(.`./.`.(.OX7XqX8X2XR.              ",
"                6 ^.3X8XuX4Xn.b.b.v./.@XpXsXrX}.x.h.h.d.h.k.x.x.k.k.k.v.d.d.h.x.[.8X+Xc.}.qX0X|. X7XpXaXrX9X+X.X                ",
"                  6 B.OX8XaX8X(.`.'.'.sXdXdXdXsX+Xn.k.x././._.v.v.x.v.v.k.k.v.x.n.).).).[.`.%XeXsXdXaXrX8X+X}.                  ",
"                    6 E.+X8XiX9X$X'.'.tXsXdXsXdXdX8Xb.v._./.(.).R.3X&Xb.n.+X7X`.`.#X&X7X9XtXdXsXsXpXyX8X+X}.                    ",
"                      6 E.OXeXpXtX*X&XsXdXdXdXdXdXdXuX|.'.|.%X9X&X[.v.b.OXOX@X7XaXdXdXdXdXsXsXpXeX8X+X.X}.                      ",
"                          .X%X9XyXtXaXsXdXdXdXdXdXsXsXtX&XrXdXsX7X(.|. X%X0XsXdXdXdXdXsXaXpX9X0X&XOX X}.                        ",
"                            XX&X0X9X9XtXaXsXdXdXdXdXdXsXaXaXdXsXsXaXdXsXdXdXdXdXdXsXaXtX9X7X&X%X X}.                            ",
"                              &X&X7X7X9X9XtXaXsXsXsXdXdXsXdXsXdXdXdXdXdXdXdXsXaXpXtXeX7X&X%X#X%X#X                              ",
"                                  +X+X7X7X9XeXpXpXpXsXsXaXsXdXdXdXdXdXsXsXaXeX8X3X+X+XOX X*X*X                                  ",
"                                      3X+X7X7X9XeXeXyXtXtXtXaXsXdXdXaXpXeX8X+X~.Q.Q.oX%X*X                                      ",
"                                            7X8X9XtXtXtXtXyXyXtXpXtX9X9X&XOX}.Q..X.XXX                                          ",
"                                                    sXsXsXsXpXtXtX3X.X.XoXoXXX                                                  "
};
