/* XPM */
static char *_eed89cf5dfc499bbac11645aa3ef901ez5ksSR6jJjdA7y0[] = {
/* columns rows colors chars-per-pixel */
"64 64 256 2 ",
"   c None",
".  c #193E76",
"X  c #25407F",
"o  c #304A88",
"O  c #186BBC",
"+  c #3774BF",
"@  c #59589E",
"#  c #587BBA",
"$  c #586FAA",
"%  c #7070AB",
"&  c #1969C7",
"*  c #1979D6",
"=  c #106EC9",
"-  c #296BC6",
";  c #287AC8",
":  c #3779C7",
">  c #267AD6",
",  c #347AD6",
"<  c #2A65D3",
"1  c #337CE5",
"2  c #4678C6",
"3  c #4A7DCF",
"4  c #677CC5",
"5  c #A271A3",
"6  c #2983BE",
"7  c #5889BF",
"8  c #7085BF",
"9  c #1A85DA",
"0  c #2B86CD",
"q  c #3381CD",
"w  c #388ACD",
"e  c #2B84D4",
"r  c #2D8CD1",
"t  c #2482DB",
"y  c #2A88DA",
"u  c #3385D1",
"i  c #338DD4",
"p  c #348CDB",
"a  c #3987D8",
"s  c #2E91D4",
"d  c #2D93DE",
"f  c #2B99D9",
"g  c #3491D5",
"h  c #3B94D5",
"j  c #3C9BD5",
"k  c #3594DA",
"l  c #3995DB",
"z  c #359BDC",
"x  c #3B9BDD",
"c  c #3599D3",
"v  c #3695CD",
"b  c #3BA4DE",
"n  c #36A1D9",
"m  c #27A1DA",
"M  c #1989E3",
"N  c #1C98EC",
"B  c #248BE1",
"V  c #298EE2",
"C  c #358BE1",
"Z  c #2B98E7",
"A  c #3496E2",
"S  c #3B96E3",
"D  c #359BE3",
"F  c #3C9CE3",
"G  c #349BE9",
"H  c #3B9CEB",
"J  c #3696EA",
"K  c #3CA3E4",
"L  c #3DA3EA",
"P  c #39A6E7",
"I  c #31B6F5",
"U  c #4885C7",
"Y  c #5886CA",
"T  c #4E8ED8",
"R  c #419EDC",
"E  c #4698D8",
"W  c #5599D8",
"Q  c #548AD1",
"!  c #6487CB",
"~  c #6E99DB",
"^  c #6A8FCD",
"/  c #44A2DD",
"(  c #45ABDC",
")  c #4CAADB",
"_  c #49A6D7",
"`  c #56ABDB",
"'  c #4AB1DE",
"]  c #57B6DC",
"[  c #65A6DA",
"{  c #7AAADB",
"}  c #65B8DE",
"|  c #74B6DC",
" . c #429FE2",
".. c #479DE6",
"X. c #559AE8",
"o. c #44A3E3",
"O. c #49A5E4",
"+. c #43AAE4",
"@. c #4CABE4",
"#. c #43A3EA",
"$. c #44ACEB",
"%. c #4CABEA",
"&. c #4CA6EC",
"*. c #52ADE4",
"=. c #51AEEB",
"-. c #57A7E5",
";. c #4DB2E6",
":. c #4BB1EC",
">. c #46B5E9",
",. c #54B3E3",
"<. c #59B3E5",
"1. c #54B3EC",
"2. c #5AB5EC",
"3. c #54B9ED",
"4. c #5DBAED",
"5. c #5AB9E4",
"6. c #46ABF2",
"7. c #48B6F3",
"8. c #54B3F2",
"9. c #59B6F2",
"0. c #5BBBF3",
"q. c #54BCF6",
"w. c #54ADF1",
"e. c #64BCE6",
"r. c #63BCEC",
"t. c #69B7E8",
"y. c #75B9E7",
"u. c #62BDF2",
"i. c #69BDF5",
"p. c #7CBFF2",
"a. c #66ACE2",
"s. c #7096E5",
"d. c #25C9FD",
"f. c #76C9DE",
"g. c #5AC1E6",
"h. c #5AC6F7",
"j. c #51CBF5",
"k. c #6BC4EB",
"l. c #67C5E8",
"z. c #76C6E9",
"x. c #77D5EC",
"c. c #64C3F3",
"v. c #6BC5F5",
"b. c #6DCAF4",
"n. c #6AC7F9",
"m. c #73CBF2",
"M. c #7BCDF2",
"N. c #75C8F7",
"B. c #6EDAFB",
"V. c #7BD4F3",
"C. c #79D7F6",
"Z. c #7FE1F1",
"A. c #9289BC",
"S. c #B588B5",
"D. c #C697BE",
"F. c #8A8CC8",
"G. c #9097D5",
"H. c #A395D4",
"J. c #A393CF",
"K. c #85A8DD",
"L. c #95A7DD",
"P. c #89B4DE",
"I. c #BBA4D3",
"U. c #AEADDA",
"Y. c #9CACE5",
"T. c #88B7E9",
"R. c #95BCEA",
"E. c #88B8F3",
"W. c #98BCF4",
"Q. c #85A6EB",
"!. c #A8B4E8",
"~. c #889DE4",
"^. c #CAA8D9",
"/. c #CBBAD8",
"(. c #C99CC4",
"). c #88CAED",
"_. c #98C9EB",
"`. c #83D3EC",
"'. c #85DBED",
"]. c #89DAEA",
"[. c #96D6EB",
"{. c #84CCF4",
"}. c #88C8F4",
"|. c #96CCF7",
" X c #83D4F5",
".X c #83DCF4",
"XX c #8BDCF3",
"oX c #8CDCFB",
"OX c #89D4F8",
"+X c #93D2F4",
"@X c #93DAF3",
"#X c #9CDCF5",
"$X c #94DDFC",
"%X c #9CDEFD",
"&X c #99D3F8",
"*X c #A3C8E9",
"=X c #A7C8F4",
"-X c #A3DEFC",
";X c #ACDEFB",
":X c #A4D8F7",
">X c #B3D4FB",
",X c #B7DAF6",
"<X c #B9CDED",
"1X c #8CE4F4",
"2X c #8BE7F8",
"3X c #94E3F6",
"4X c #93E2FE",
"5X c #9BE2FC",
"6X c #9BEAFA",
"7X c #99E8F6",
"8X c #93E6F0",
"9X c #A5EBF5",
"0X c #A4E3FD",
"qX c #ABE5FC",
"wX c #A3EBFB",
"eX c #ACEBFC",
"rX c #AAE8F6",
"tX c #B4E5FC",
"yX c #BCE5FC",
"uX c #B3EBFD",
"iX c #BBEBFD",
"pX c #B9E7F6",
"aX c #A5F2FB",
"sX c #ACF3FC",
"dX c #ADF9FC",
"fX c #ACF5F6",
"gX c #B4F3FC",
"hX c #BBF2FC",
"jX c #B4FBFD",
"kX c #BBFBFC",
"lX c #B8FAF5",
"zX c #9AC9D3",
"xX c #E9C0DE",
"cX c #C5C8F7",
"vX c #C7DBF8",
"bX c #D8D8F9",
"nX c #D4C8E6",
"mX c #EBCDEF",
"MX c #C4E5FC",
"NX c #CAE5FD",
"BX c #C3ECFD",
"VX c #CCEBFD",
"CX c #C8E7F5",
"ZX c #D2EDFD",
"AX c #D3E4FC",
"SX c #C4F3FD",
"DX c #CCF4FE",
"FX c #C4FAFD",
"GX c #CCFAFD",
"HX c #CEFBF3",
"JX c #D3F5FD",
"KX c #D9F5FD",
"LX c #D4F9FD",
"PX c #DBF9FD",
"IX c #D4FDF0",
"UX c #E1F0F9",
/* pixels */
"                                                      o X . o $ Y W U $ L.cX                                                    ",
"                                              I.U.=X# # 7 U E <.e.x.k.t.{ T.=X>X>X=X                                            ",
"                                        5 5 (.^.<X&XE.W : a F / _ _ 1.%.x x @.].:X;XiX,X                                        ",
"                                    5 5 (.mXmXUX>X{.O.k l g x x x R R R R z x H (  XtXDXZXAX                                    ",
"                                S.S.I.vXNXbXAXyX+XN.F F A k x o.o.o.o./ o.x K H K *.oXhXFXGXCXnX                                ",
"                            5 S./.AXNXvXcXtXqX:XOX-.G F K O.o.O.O.o.o.o.o. .o./ +.1.] #XuXhXDXHX*XF.                            ",
"                          % 8 <X>X:XW.G.t.e.` z. XO.G x F / O.O.r.,.K H o.o. .o.K ,.1XfXwX0XyXvX,X@XW                           ",
"                        @ L.>X-XOXX.: : A A D 1./ F F o.o.o.O.#.) C.&.j j x H F F b P z..XXXqXMX;X}.i.-.                        ",
"                      @ R.-X|.y.U : 2 : a k l z x x o.O.O.O.#.+.( l.8XK D z F F l F F H +..XwXqX|.N._ :.$.w                     ",
"                  @ 4 =X&X{.T : # 3 2 : q r l z z K +.@.O.%.%.O.P ( .Xe.G z F F z k F  .o.,.z.].+Xu.x q O.3.E                   ",
"                  # :X@XE.2 2 2 2 : + ; ; p j x x o.@.%.%.:.=.=.O.P *.2X3.K F D A z x o.F D D 3.O.K k , O o.w.E                 ",
"                $ ;X-XE.# + : 2 : + 0 , l l J F F #.%.8.%.6.1.0.r.o.P ] C.2.o.H 7.%.o.o.z A z k z k i 0 ; O l &.                ",
"              8 :X:XK.4 4 3 , : > i S H K b b ;./ ] C.,.( 5..X7X6Xt.$.$.x.5X).z.,.b o.o.l z k k d g r e > - & l :.              ",
"            8 ,X:XY.H.H.! , ; ; p K O.) } 1XfXjXdXwXXX].aXaX9XrXdX`.` / l.9XgXgX@X) l e.h p k g x a p > ; ; > > 7.h.            ",
"          ! _.qX*XI.^.J.2 : u l ..#.l.6XfXjX3Xx.,.K j 4.k.) z K ( g.l.x.1XfXfXlXkX6X( b c.E h a w h a p ; 0 & - ..q.2X          ",
"          :XkXeX!.H.F.Y Q E F o. .f.jXjX1X5.K D D A z z A A z z D D K b m.7XM.' 5.2X'.P +.V.R l k s -.w e e ; * t 7.h.          ",
"        &XLXkXuXY.G.Y Y s.X...F K 8X'.] b G D D z A k k d k k g z l z x F +.l.V.@.@.7X`.o.) M.E g c k._ p e e * V I I 2X        ",
"        hXIXjX_.*X#XW ~.[ ....F F *.K P z j F S l h k g g k k k k l A k D P @.2.O.P <.8Xe.H ( m.E x E b.r p t t G d.d.I         ",
"      5XLXlX_.T._.*XT.~ o...H x l f P G J  .l k l p k p g g g l k h l  .F E -.,.o.+.K +.M.' K x 9.S z ` R e p y A I I I %X      ",
"      uXLXwXW.K.+XY.Q.6.&.w.#.F F F x x x z z k k k i l g g k k p l l S S J z ;.=. .K o._ 1X6.n j A F j b.p k e a J Z N p.NX    ",
"    &XFXkXzX!.R.=XT.y.E.|.|.E.t.a.-.#.L F A S z s k g g i h i g l i h l l l l f O.<.#.K P z.'.K z z G z r.f.p V C O 1 t X.5X    ",
"    wXFXCXcXY._.T.|.:XtXyXtXtXyXtX;X{.a.) ..2.o.k g l i i i i i g a p k k h l l n `.e.L P ) 2X5.G z P G z B.,.C T 0 u 9 T i.    ",
"    gXHXUX~.-.y.|.-X;XpXtXiXBXBXBXZXBXuX&Xz.c.j k k g g i i i r i u r r g g k A r.6X$X..K P @.2X3.P ( G n D h.p u ,.[ 9 1 6.oX  ",
"  $XHXKXpXa ..#X-X$X5X;XqXuXyXBXDXZXKXKXJX@Xj c z g g g i i 0 r r r p p h R g A j V. X1.K P #.] x.5.h.l.x.b 5.j V 5.[.> > Z  X  ",
"  eXSXCXz.A |.iX:X4X4X-X;XtXiXDXJXLXPXKXLX+XK A Z z g p r r r r r r i r l -.n k l R b.l.K  .P $.x.8Xl.f.8Xx._ ;.d ) rXy > M M.  ",
"  gX|.[...` vXqX$X$X4X5X6X0XhXDXLXKXPXKXKX*X/ K L :.O.f s s s s s g k k k i g k k x ) C.@.#.$.P 3.jX1Xh.b.;.;.e.V +.lXE t M z.  ",
"  uX .t.a p.NX5X4X4X4X4X4XwXgXSXDXFXFXJXJXiX).z.] b z s r r g g i g g h j g i g g h j j o.F K L :.fX'.' g.>.:.4.B z kXO.t y @X4X",
";X@XM 2.a +XpX%X4X4X4XoX4XwXgXpXhXhXhXiXBXBXSXBXqX) s r r r r s r g g k l o.g g O.1.F x x K K +.7.aXg.h.%.7.+.l.B z kX@.t h.fX5X",
"#XN.* #...$XrX4X4X$X4X4X4XwXhXfXgXgX6XqXyXBXCXKXZX:Xy.[ -.i k s i g p z k b g v r.n.F H j F L o.q.2X;.j.%.7.:.b.y K lX*.t h aX3X",
"$X<.1 g -.$XwX$X$X$X$X$X6XrXkXfXjXgXwXeXhXSXDXDXCXVXMXMX_.W v r k g k l z x x ) v._ x F K o...o.O.g.$.3.3.6.L B.y ( lX@.> * t.5X",
"$X~ -.2.&X%X-X$X$X&X0X$X5XwXjXgXjXgXgXhXDXKXJXVXZXZXVXNX,X_.-.0 k k k j D j ) t.n./ x x  .o.o.%.$.P $.%.P ;.I C.f 2XjXc > , : 3X",
"6X| V.0XtX:X$X4X%X-XqXqXqXeXkXkXlXSXFXDXKXLXKXVXZXZXZXMXvX*Xy.h g k S x b R ) <.-.1.R R  .o.o.w.+.P @.%.7.,.7.7Xl.dX8Xy > E - %X",
"wXwXwXpXqX%X$X$X4X;XqX;XqXuXFXFXFXGXFXDXJXPXPXZXCXCXvXyX,X=Xp.x l l F F x R _ E -.=.R =./ o.O.=.o.P ;.1.6.8.7.wXjXkXf.M > ` - _.",
"wXwX0XuXqX-X5X4X4X%X-X;X0XqXSXFXDXDXKXKXLXPXKXZXVX,X,XyXtX|.2.x l k F H R R / x R R / 4.O.O.&.=.#.$.3.2.7.q.j.fXlXjX' M 0 ` < R.",
"qXeXuXiXrX-X5X4X$X4X5X$X0XqXuXFXFXDXJXLXLXJXJXVXVXMX,X,X;X X@.J D D D F O.O.+.o. ./ 2.<.@.%.=.8.%.>.0.1.8.q.j.jXkXsXc V 0 t.< :X",
"qXiXBXBXpX:X%X4X4X4X4X$X5X0XeXhXSXDXGXLXLXGXDXVXNXMXBXvXBX).K L P L O.o.+.#.O.o.O.*.m.*.%.@.8.8.%.1.c.1.4.h.g.jXlX9Xd d 0 i.E &X",
"pXCXVXVXVXqX;X%X4X4X4X$X2X$X5XeXSXSXJXLXLXDXJXVXNXyXNXVXVXtX} ` @.+.o.$.+.%.%.@.@.n.v.=.=.w.9.1.1.0.9.9.u.h.h.kXkXz.V V 0 <.k.|.",
"MXCXAXZXVXyXqX-X$X4X4X4XoX4X5XqXSXDXLXLXLXDXDXVXMXyXMXyXyXBXBXiX0X} / O.@.%.1.*.u.3.4.1.8.8.9.8.1.c.9.0.n.j.h.kXdX_ d V / f.oXM.",
"  ZXZXJXZXVXMXtX-X%X5X5X5X5XqXhXDXLXLXGXFXSXhXSXSXyX,XpXiXNXAXKXJX,Xt.=.1.8.1.0.r.n.0.2.9.0.0.9.v.r.0.q.N.l.Z.kX.XG A d `.].4X  ",
"  bXAXVXVXMXtXqXqX-XqXqXqXuXiXiXBXJXKXDXFXgXeXeXeXuXtXtXtXVXZXJXBXyX{.0.q.4.N.b.m.M.0.N.b.c.c.c.N.h.h.h.2XZ.jXkX,.Z G O.gXaXC.  ",
"  mXbX<X,XpX,X;X;XqXqX;XqXuXBXBXBXFXSXSXFXgXwXgXuXeXeXeXeXuXSXDXBXtX5Xl.N.$X0X].eXVX@X6Xl.x.2XM.i.h.h.N.2X1X3XjXK c z M.sXt.m   ",
"  mXbXvXpXtXqXqX;XqXqXqXqXiXiXBXBXhXSXhXiXhXFXDXGXFXuXgXgXuXuXiXiXeX5XoXaXhXKXGXHXPXLX9X].3X7Xn.i.c.b.3X8Xb.].7XE Z $.9X_ * M   ",
"    mXbX,X,X-X5X%X-XqXuXuXiXiXBXiXiXSXFXBXGXKXPXPXPXJXGXDXSXiXiXgXuX0X9XrXiXJXJXLXLXIXKXBX5Xz.M.n.n..XdXZ.B.8XC.z J t.` * =     ",
"    xXbXvX:XOX XM.6XqXqXiXiXiXiXBXBXBXDXKXPXPXPXPXLXPXPXPXKXJXDXSXrXqX0XeXuXiXSXDXDXDXKXZXBXiXFXeX XwX5Xb.B.XXt.J u W e = =     ",
"      nXvX|.}.p.8XaX0XqXtXiXiXiXiXiXiXSXDXJXPXPXPXPXLXPXPXPXLXKXKXhXuXqX0XeXeXtXiXBXBXiXpXVXZXCXCXSXkX`.b.N.6XR a q R & = *     ",
"      ^.cXE.Y : e.7XoX5XqXuXuXhXuXiXiXBXBXDXHXJXPXPXPXPXPXPXPXPXPXLXDXiXeX0X-XqXqXtXtXtXyXyXMXMXSXGXhX5XV.XXC. .a ; : = O       ",
"        J.^ ! 3 l F 5.4X%XqXuXuXiXiXBXyXyXBXBXBXDXLXLXJXKXKXKXKXKXGXJXVXtX0X5X-X-X0X0XqXwX-X0XeXhXgXqX0XXX3X<.A i a a + #       ",
"        ^.G.s.2 i o.b  X5X5X0XeXuXuXtXuXyXtXuXuXuXiXFXDXDXVXBXyXyXpXMXBXtX:X-X5X%X-X%X$X$X$X5X0XqX0X0X$XoXXXR k k j R ~         ",
"          F.3 : i z @.3X5X4X5X0XqXtXeXuXqXqXeXeXwX0XeXhXSXSXiXiXyXiXVXZXBXtX-X$X%X%X-X$X$X%X%X-X0X-X5X$X3Xk...l F o.=.Y.        ",
"          J.7 q k A @.7X5X4X5X0XqXqXqXqX0XeX0XeXgXgXhXhXpXiXpXyXMXCXZXZXVXiXqX:XqX0X-X%X-X%X%X%X%X$X.XoX6X` A R O.=.T.          ",
"            F.T l l z i..XXXwX0XqXeXtXeXqX0X0XqXqXhXGXJXDXDXDXSXJXJXJXVXMXtXqXqX-X-X%X%X%X-X%X%X-X$X X.X1X#. . .-.t.L.          ",
"              H.T a l x ,.x.6X3X$X0XeXeXeXeXqXqXrXiXCXVXSXBXSXSXBXBXBXiX,XtXtXqX0X5X%X%X%X%X%X-X%X5X$XoXz.#.o.O.z.P.            ",
"                Y u k k x K #.g.3X4XwXeXiXhXBXqXwXuXiXBXBXBXiXtXtXyXtXtXtXtXeXqXqX0X%X%X-X5X%X%X%X$X$XXX,.O.@.u.}.              ",
"                ^ w i l F D L / V.4X0XqXhXFXJXSXiXiXiXiXiXyXtXqXtXqXqXuXeXuXeXeXqX0X0XqX0X%X%X%X%X$X3XoX1.:.1.r.                ",
"                  T i E  .o.+.O.) x.wXqXuXDXPXLXDXiXiXiXiXiXqXqXqXqXqXeXsXgXgXuXiXeXqX-X-X%X%X5X-X5XfXV.9.1.u.                  ",
"                    ~ ` r.o.K ;.l.7XsX%XeXFXLXDXFXhXeXuXuXiXuXtXuXtX0XqXeXhXSXFXiXtXqX0X%X%X0X0XuXSXgXN.c.v.                    ",
"                        #Xt.6.K x 5.`..X6XuXDXhXhXgXhXhXiXhXuXuXuXeXeXqXuXiXSXBXyXuXqX0X%X-X0XqXeXeXqXM.z.                      ",
"                          {.&.F K H K l.wXeXhXhXhXSXJXJXDXBXhXgXiXuXgXhXBXiXiXiXuXqX0X0X5X$X-X0X-X0X:XM.                        ",
"                            E.-. .o.$.@.fXwX0X:XuXiXJXKXKXDXDXSXFXFXDXDXJXBXiXiXuXqX;X%X$X5X5X$X:X=X_.                          ",
"                                9.@.O.8.3XsXR.T.:XqXtXiXSXDXGXGXLXGXGXDXSXSXBXSXqX5X$XoX}.).+X|.@X                              ",
"                                    7.` }.[.!.K.:X&X-XqXeXeXuXiXSXSXSXiXyXtXuX%XoX{.{ { |.oX{.                                  ",
"                                      [ U.!.Y.>X_.R.-XqXeXrX9XfXjXgXfX#X@X`.y.| T.}.oXoXM.                                      ",
"                                            A.R._.:XqXqXeXgXdX9XV.,.H A G D $.>.K l                                             ",
"                                                  Y.e.B.B.B.7.D N M M M 9 9                                                     "
};
