/* XPM */
static char *result[] = {
/* columns rows colors chars-per-pixel */
"64 64 218 2 ",
"   c #1D181A",
".  c #251D1C",
"X  c #2A1E1B",
"o  c #251A17",
"O  c #3A1F14",
"+  c #27201E",
"@  c #2B211E",
"#  c #35231D",
"$  c #3B251C",
"%  c #221E22",
"&  c #262124",
"*  c #2C2423",
"=  c #2F2826",
"-  c #2C2629",
";  c #2E282A",
":  c #262229",
">  c #322623",
",  c #392721",
"<  c #332926",
"1  c #3C2A23",
"2  c #342B2A",
"3  c #392E2B",
"4  c #302728",
"5  c #3C322E",
"6  c #342E32",
"7  c #382F36",
"8  c #3E3431",
"9  c #37313A",
"0  c #3B363A",
"q  c #41271D",
"w  c #44291D",
"e  c #4C2C1D",
"r  c #542E1D",
"t  c #5C321E",
"y  c #54301E",
"u  c #63341E",
"i  c #6A371F",
"p  c #75391D",
"a  c #422D23",
"s  c #4A2E21",
"d  c #412F29",
"f  c #4C3125",
"g  c #43342D",
"h  c #4C362A",
"j  c #4D392E",
"k  c #533324",
"l  c #5C3522",
"z  c #523A2D",
"x  c #5C3B2B",
"c  c #5C3926",
"v  c #413632",
"b  c #443A35",
"n  c #4A3D35",
"m  c #463B39",
"M  c #493E3A",
"N  c #453634",
"B  c #523D32",
"V  c #633520",
"C  c #6C3921",
"Z  c #663A25",
"A  c #723C22",
"S  c #7D3E21",
"D  c #713E28",
"F  c #4D423C",
"G  c #4E4136",
"H  c #53453C",
"J  c #564A3E",
"K  c #5B4A3C",
"L  c #594337",
"P  c #6B412B",
"I  c #66412F",
"U  c #7C4123",
"Y  c #774329",
"T  c #644534",
"R  c #644C3D",
"E  c #6C4937",
"W  c #754A33",
"Q  c #78513D",
"!  c #3C3544",
"~  c #3E3844",
"^  c #3E3848",
"/  c #433C4C",
"(  c #403A46",
")  c #453E52",
"_  c #4D4449",
"`  c #524641",
"'  c #554A42",
"]  c #5B4D44",
"[  c #584D49",
"{  c #5E5146",
"}  c #5E524B",
"|  c #4B4353",
" . c #524B5B",
".. c #524B51",
"X. c #5B5354",
"o. c #624D42",
"O. c #625346",
"+. c #63554B",
"@. c #65584C",
"#. c #6B5B4D",
"$. c #6A5546",
"%. c #715D4F",
"&. c #665951",
"*. c #6B5D52",
"=. c #61595A",
"-. c #745D5A",
";. c #6D6253",
":. c #726253",
">. c #7A6B5B",
",. c #786657",
"<. c #7D705D",
"1. c #534B62",
"2. c #584F67",
"3. c #594F68",
"4. c #5C526A",
"5. c #5C5364",
"6. c #60566F",
"7. c #675B67",
"8. c #635A72",
"9. c #685F73",
"0. c #6B6366",
"q. c #756969",
"w. c #7E726A",
"e. c #6D647A",
"r. c #736A76",
"t. c #7B7579",
"y. c #87411E",
"u. c #8B4422",
"i. c #864626",
"p. c #9B4B24",
"a. c #934722",
"s. c #8B5235",
"d. c #A44E23",
"f. c #A84F21",
"g. c #AB5020",
"h. c #99613F",
"j. c #805845",
"k. c #836C5C",
"l. c #8A6956",
"z. c #83715D",
"x. c #89755F",
"c. c #996F58",
"v. c #A87755",
"b. c #847362",
"n. c #87786A",
"m. c #997769",
"M. c #8A7971",
"N. c #8E7469",
"B. c #A17965",
"V. c #CA8236",
"C. c #93836D",
"Z. c #978577",
"A. c #9F917B",
"S. c #A6836C",
"D. c #B38064",
"F. c #AB8B7A",
"G. c #A78976",
"H. c #B98D7C",
"J. c #AA927E",
"K. c #A5937C",
"L. c #B5937D",
"P. c #B49077",
"I. c #CC9351",
"U. c #C88153",
"Y. c #D39764",
"T. c #C2906E",
"R. c #CFA468",
"E. c #746B82",
"W. c #786F85",
"Q. c #7C7389",
"!. c #817886",
"~. c #837A91",
"^. c #998D84",
"/. c #948C93",
"(. c #978D8E",
"). c #A79587",
"_. c #BD9882",
"`. c #A59990",
"'. c #B9A88D",
"]. c #B2A396",
"[. c #BAAA9D",
"{. c #B8A898",
"}. c #BFB2A7",
"|. c #CD9C8B",
" X c #C29C81",
".X c #D09F8D",
"XX c #CCA48C",
"oX c #C7A18C",
"OX c #C9A892",
"+X c #D7AA94",
"@X c #DEB39A",
"#X c #D4B29A",
"$X c #C4B296",
"%X c #CCBCAC",
"&X c #C7B5A6",
"*X c #DABDA6",
"=X c #E3BFA5",
"-X c #DACABA",
";X c #DDC5AF",
":X c #EDC9AC",
">X c #EAC4A7",
",X c #E6CCB7",
"<X c #F1CEB4",
"1X c #F2D5BD",
"2X c #F1D1B6",
"3X c #DCD6D1",
"4X c #EDDBCB",
"5X c #E6D6C7",
"6X c #F5DECA",
"7X c #F3DAC3",
"8X c #E6DED9",
"9X c #F6E1CE",
"0X c #F6E5D4",
"qX c #F9E6D4",
"wX c #FAE8D6",
"eX c #FCECDC",
"rX c #F2EDE7",
"tX c None",
/* pixels */
"tXtXtXtXtXtXtXtXtXtXtXtXtXtXtXtXtXtXtXtXtXtXtXtXtX8 G tXtXtXtXtXtXtXtXtXtXtXtXJ tXtXtXtXtXtXtXtXtXtXtXtXtXtXtXtXtXtXtXtXtXtXtXtX",
"tXtXtXtXtXtXtXtXtXtXtXtXtXtXtXtXtXtXtXtXtXtXtXtXtXtX+.8 tXtXtXtXtXtXtXtXtXtXtXtXF tXtXtXtXtXtXtXtXtXtXtXtXtXtXtXtXtXtXtXtXtXtXtX",
"tXtXtXtXtXtXtXtXtXtXtXtXtXtXtXtXtXtXtXtXtXtXtXtXtXtXG &.` < tXtXtXtXtXtXtXtXtXtXm G tXtXtXtXtXtXtXtXtXtXtXtXtXtXtXtXtXtXtXtXtXtX",
"tXtXtXtXtXtXtXtXtXtXtXtXtXtXtXtXtXtXtXtXtXtXtXtXtXtXtX@.&.&.@.n + tXtXtXtXtXtXtXF 8 tXtXtXtXtXtXtXtXtXtXtXtXtXtXtXtXtXtXtXtXtXtX",
"tXtXtXtXtXtXtXtXtXtXtXtXtXtXtXtXtXtXtXtXtXtXtXtXtXtXtXtX@.@.#.;.*.' v tXtXtXtX5 F M [ tXtXtXtXtXtXtXtXtXtXtXtXtXtXtXtXtXtXtXtXtX",
"tXtXtXtXtXtXtXtXtXtXtXtXtXtXtXtXtXtXtXtXtXtXtXtXtXtXG { ` +.H { +.+.' J 5 F tXH M m F tXtXtXtXtXtXtXtXtXtXtXtXtXtXtXtXtXtXtXtXtX",
"tXtXtXtXtXtXtXtXtXtXtXtXtXtXtXtXtXtXtXtXtXtXtXtX{ O.G g 5 v K n v b b ( [ X.} { m M ] tXtXtXtXtXtXtXtXtXtXtXtXtXtXtXtXtXtXtXtXtX",
"tXtXtXtXtXtXtXtXtXtXtXtXtXtXtXtXtXtXtXtXtXtX@.{ 5 G J b 5 8 2 b ' H F +.+.` ` { m ' *.tXtXtXtXtXtXtXtXtXtXtXtXtXtXtXtXtXtXtXtXtX",
"tXtXtXtXtXtXtXtXtXtXtXtXtXtXtXtXtXtXtXtX{ >.{ K J g 5 n G ` ' b = 3 M b &.` F M M ' *.+.tXtXtXtXtXtXtXtXtXtXtXtXtXtXtXtXtXtXtXtX",
"tXtXtXtXtXtXtXtXtXtXtXtXtXtXtXtXtXtXtX@.n.z.:.G 5 N G F b 3 8 b v M ` F m M } ( N ] H H J tXtXtXtXtXtXtXtXtXtXtXtXtXtXtXtXtXtXtX",
"tXtXtXtXtXtXtXtXtXtXtXtXtXtXtXtXtXtX;.K.K.R 3 g 5 g b 2 M [ [ [ ' ( m [ ` m F &.M < 5 M $.#.tXtXtXtXtXtXtXtXtXtXtXtXtXtXtXtXtXtX",
"tXtXtXtXtXtXtXtXtXtXtXtXtXtXtXtXtXn.$XC.b 5 g 3 5 5 8 ` F F ` 8 g m +.[ ' ` ` F +.2 3 3 N M :.' tXtXtXtXtXtXtXtXtXtXtXtXtXtXtXtX",
"tXtXtXtXtXtXtXtXtXtXtXtXtXtXtXtXK.$X>.H n G 5 5 < F b 8 b b m 8 M +.' ` F F ` F O.5 2 8 8 3 n &.@.tXtXtXtXtXtXtXtXtXtXtXtXtXtXtX",
"tXtXtXtXtXtXtXtXtXtXtXtXtXtXtXC.'.@.#.$.H 5 = < G 3 5 m b b 8 F M m M F M M F F M H 2 2 v ` m v J J tXtXtXtXtXtXtXtXtXtXtXtXtXtX",
"tXtXtXtXtXtXtXtXtXtXtXtXtXtXb.K.O.;.{ G 5 < 5 8 8 5 8 8 8 8 8 v n F ' 8 M M 8 5 5 G 3 2 8 v [ O.5 3 tXtXtXtXtXtXtXtXtXtXtXtXtXtX",
"tXtXtXtXtXtXtXtXtXtXtXtXtXn.'.@.G 5 G 8 5 n 5 2 8 8 6 3 8 b 8 b M ' v 8 b b b 3 3 8 . 8 8 8 m o.:.3 tXtXtXtXtXtXtXtXtXtXtXtXtXtX",
"tXtXtXtXtXtXtXtXtXtXtXtX<.J.:.{ n * . . + * < 2 8 8 8 8 3 8 M m ' 8 5 5 8 b 8 < < g % . m 0 M J $.:.g tXtXtXtXtXtXtXtXtXtXtXtXtX",
"tXtXtXtXtXtXtXtXtXtXtXtXA.@.' n < < @ + 5 @ * * = = 2 = b ` m M 8 8 8 5 b n 2 < < g > > 3 n ` ' M >.O.tXtXtXtXtXtXtXtXtXtXtXtXtX",
"tXtXtXtXtXtXtXtXtXtXw.C.J n M 5 > @ + H 5 2 5 * b F 8 { *.M v n ' G 8 8 { 2 b 5 M N . 3 X ` M *.J ' b.N tXtXtXtXtXtXtXtXtXtXtXtX",
"tXtXtXtXtXtXtXG +.z.@.J H H J * @ + g 5 5 5 = 5 H 5 O.+.>.#.+.b.,.J K :.2 { ;.K K N * M g 4 ' } *.] #.z.tXtXtXtXtXtXtXtXtXtXtXtX",
"tXtXtXtXtXtXtXtXO.J L G ] >., . . < 5 < < 2 @ b n ] 3 2 5 @.>.z.+.J +.G < ;.,.[ g 5 < N n . H +.k.[ :.O.O.tXtXtXtXtXtXtXtXtXtXtX",
"tXtXtXtXtXtXtXtXtXtXtXG z.n 1 . . g * = < @ = n 5 = 2 < b *.F 8 8 G 2 + F n G 5 b = 3 @ N X = ' O.k.z.n :.tXtXtXtXtXtXtXtXtXtXtX",
"tXtXtXtXtXtXtXtXtXtXtX,.{ a , + * @ . + + * = * = 2 2 8 H 5 2 8 b 2 + 2 3 8 8 3 2 8 < + 1 * . 8 b #.n.#.n tXtXtXtXtXtXtXtXtXtXtX",
"tXtXtXtXtXtXtXtXtXtX' $.g a @ @ > + . . + @ = > < < 5 v 3 2 2 8 * * ; 2 8 = 2 2 2 2 < + > * . < @ 5 #.C.tXtXtXtXtXtXtXtXtXtXtXtX",
"tXtXtXtXtXtXtXtXtXtXN h , # < < # . + * * * < = + 3 2 2 2 2 2 & = = 2 2 = < 2 2 3 2 2 . < * # . * = g G.5 tXtXtXtXtXtXtXtXtXtXtX",
"tXtXtXtXtXtXtXtXtXK J > @ G < , @ + + @ @ < < 3 5 2 2 2 * * 2 2 ; = = 2 2 = 2 b 2 2 4 . < > % . < + $ x.H tXtXtXtXtXtXtXtXtXtXtX",
"tXtXtXtXtXtXtXtX:.O., 1 , L > > . @ . + * < 3 < 2 * + & = 8 2 = + + * < * 2 F 6 2 = = * 4 * * # * @ # #.+.M tXtXtXtXtXtXtXtXtXtX",
"tXtXtXtXtXtX5 , 1 g d 5 a G > # o @ @ . . + + &   = 3 * = = * . * * = < 5 5 F 2 = 2 * < < > % a @ * # K ,.[ F tXtXtXtXtXtXtXtXtX",
"tXtXtXtXtXtXtX3 1 > 3 @ d h # @ o @ X X > < < = < 8 * * * . . . b + + 5 3 0 8 2 ; < v > = > @ a @ , , G :.5 v v * tXtXtXtXtXtXtX",
"tXtXtXtXtXtXtXtXtXtXJ $ L 1 # + X @ @ o > < = @ 5 ; 4 4 * 4 @ %.L.+ = 5 3 F 5 + 2 2 k.o.@ * . 1 # , 1 j O.tXtXtXtXtXtXtXtXtXtXtX",
"tXtXtXtXtXtXtXtXtXK K c T $ $ # # $ X X > > > * 2 = 4 = 2 @ k.>XL.+ 2 2 8 b = 5 2 2  XS.@ * + 1 # , 1 f K tXtXtXtXtXtXtXtXtXtXtX",
"tXtXtXtXtXtXtXtXtXR P P T $ # w $ # $ # > > # < * 2 2 < v H.2XwXK.@ 6 3 b = 3 3 2 o.2X>X3 @ . 1 , # 1 1 H tXtXtXtXtXtXtXtXtXtXtX",
"tXtXtXtXtXtXtXtXZ W Y P I q # r w $ w # , $ @ @ < 2 % k.:X9XeXeXZ.2 2 8 = = 2 8 < L.wX1X%.X . $ $ , a d g tXtXtXtXtXtXtXtXtXtXtX",
"tXtXtXtXtXtX1 D i.i.U l k e $ t e $ q # $ $ . @ < 2 F.6XeXeXeXeX>.5 8 = 5 6 2 2 $.1XeX9XS.. . w a $ f h h H tXtXtXtXtXtXtXtXtXtX",
"tXtXtXtXtXE D D Z l k l k s w t r r $ $ w $ o + a E M n 0.`.5XwXK 5 * = 8 = 2 8 *XeXwXqXXX. X e s $ k h f f tXtXtXtXtXtXtXtXtXtX",
"tXtXtXtXtXtXtXtXtXtXL Y l w y u r t e # q @   s $ # # 1 B B 8 w.5 2 * 2 = < < ).[.^.w.q.,.X X e s $ t h I x f tXtXtXtXtXtXtXtXtX",
"tXtXtXtXtXtXtXtXtXtXl U Z w u Z r t r $ q $ t %.s.j.h.Q M.K m.%.3 * 2 2 = 3 b L 5 > = g z # X l k w t h I W P k tXtXtXtXtXtXtXtX",
"tXtXtXtXtXtXtXtXtXtXu.S C V u A r u t r q l.Y.S Y R.I.&XrX8X&X+.= < - 2 2 K l.w U C e n.$.X O V y $ c s tXtXtXtXtXtXtXtXtXtXtXtX",
"tXtXtXtXtXtXtXtXtXZ p.A p p C i w i r u t P.wX7X@XXX@X=X,X9X-X* 2 & 2 ; *.4X5Xv.Y.I.A.3X$.i r t y $ u P $ tXtXtXtXtXtXtXtXtXtXtX",
"tXtXtXtXtXtXtXtXtXu.d.A S A A E Q p r u u #XeXeXeXeXeXeXeXeX}.2 3 2 2 w.0XeXeX,X=XT.B.u.U.m.V e l $ t u.s tXtXtXtXtXtXtXtXtXtXtX",
"tXtXtXtXtXtXtXtXtXd.p.S S A r B v.C u V V *XeXeXeXeXeXeXeXeX}.8 v 3 K.qXeXeXeXeXeXeXeXeX6Xl.u t e f l p.u tXtXtXtXtXtXtXtXtXtXtX",
"tXtXtXtXtXtXtXtXD d.a.u.A C g h B.j.A k C &XeXeXeXeXeXeXeXwXX.O.).;XeX1XeXeXeXeXeXeXeXeX6XW C u 5 h i p.p tXtXtXtXtXtXtXtXtXtXtX",
"tXtXtXtXtXtXtXtXu.d.a.u.C k tXa o.H.D Z C F.eXeXeXeXeXeXeX[.].5X0XeXeX2X6XeXeXeXeXeXeXeX=XV A k I tXtXp.S tXtXtXtXtXtXtXtXtXtXtX",
"tXtXtXtXtXtXtXtXp.d.p.l V tXtXd B l..Xc.l.l.eXeXeXeXeXeXeXeXeXeXeXeXeX7X2XeXeXeXeXeXeXeXS.V x tXT tXtXY A tXtXtXtXtXtXtXtXtXtXtX",
"tXtXtXtXtXtXtXtXp.f.a.tXk tXtXg N tXk.>X>X%X0XeXeXeXeXeXeXeXeXeXeXwXeX6X:XqXeXeXeXeXeXeXv.c.tXtXtXtXtXx P tXtXtXtXtXtXtXtXtXtXtX",
"tXtXtXtXtXtXtXtXd.g.Y tXj tXtXtXtXtXtXo.m.oXeXeXeXeXeXeXeXeXeXeXeXeXeX6X:XqXeXeXeXeXeX*XT.tXtXtXtXtXtXtXtXtXtXtXtXtXtXtXtXtXtXtX",
"tXtXtXtXtXtXtXtXd.g.tXtXtXtXtXtXtXtXtXg B $.4XeXeXeXeXeXeXeXeXeXeXeXeX<X6XeXeXeXeXeXeXG.o.tXtXtXtXtXtXtXtXtXtXtXtXtXtXtXtXtXtXtX",
"tXtXtXtXtXtXtXtXd.y.tXtXtXtXtXtXtXtXtXK d B J.eXeXeXeXeXeXeXeXeXeXeXeXwXeXeXeXeXeXeX&Xo.tXtXtXtXtXtXtXtXtXtXtXtXtXtXtXtXtXtXtXtX",
"tXtXtXtXtXtXtXtXp.Y tXtXtXtXtXtXtXtXtXtX5 z L.%XeXeXeXeXeXeXeXeXeXwXeXeXeXeXeXeXeXwX*.7 tXtXtXtXtXtXtXtXtXtXtXtXtXtXtXtXtXtXtXtX",
"tXtXtXtXtXtXtXtXu.I tXtXtXtXtXtXtXtXtXtXtXL _.F.,XeXeXeXeXeXwX*X-X0X4X,X0XeXeXeXeXZ.2 0 tXtXtXtXtXtXtXtXtXtXtXtXtXtXtXtXtXtXtXtX",
"tXtXtXtXtXtXtXtXE k tXtXtXtXtXtXtXtXtXtX5 B _.@XG.4XeXeXeXeXeXeXwXqXqX0XeXeXeXeX`.tX= 3 ; tXtXtXtXtXtXtXtXtXtXtXtXtXtXtXtXtXtXtX",
"tXtXtXtXtXtXtXtXtXz tXtXtXtXtXtXtXtXtXtXtX' _.@X@XF.5XeXeXeXeXeXeXeXeXeXeXeXeX^.tXtXg V.tXtXtXtXtXtXtXtXtXtXtXtXtXtXtXtXtXtXtXtX",
"tXtXtXtXtXtXtXtXtXtXtXtXtXtXtXtXtXtXtXtXtXm F.@X@X@XL.[.eXeXeXeXeXeXeXeXeXeXM.b tXtXtX+.tXtXtXtXtXtXtXtXtXtXtXtXtXtXtXtXtXtXtXtX",
"tXtXtXtXtXtXtXtXtXtXtXtXtXtXtXtXtXtXtXtX.. .7.oX@X@X@XXXK.wXeXeXeXeXeXeXeXM.tXtXtXtXtXtXM.tXtXtXtXtXtXtXtXtXtXtXtXtXtXtXtXtXtXtX",
"tXtXtXtXtXtXtXtXtXtXtXtXtXtXtXtXtXtXtX0.&  .1.5.F.@X@X@X+XG.-XeXeXeXeX4Xm.G.tXtXtXtXtXtX`.tXtXtXtXtXtXtXtXtXtXtXtXtXtXtXtXtXtXtX",
"tXtXtXtXtXtXtXtXtXtXtXtXtXtXtXtXtX..0.- & 2. .2.4.M.@X@X@X@X_.{.0XeX&XB.|.M.tXtXtXtXtXtXn.%XtXtXtXtXtXtXtXtXtXtXtXtXtXtXtXtXtXtX",
"tXtXtXtXtXtXtXtXtXtXtXtXtXtXtXtXX.r.% 2 6 3.1.1.1.e.q.|.@X@X@X+Xm.m._.|..XM.) tXtXtXtXtXtX{.[.tXtXtXtXtXtXtXtXtXtXtXtXtXtXtXtXtX",
"tXtXtXtXtXtXtXtXtXtXtXtXtXtXtX=.r.% % %  .3.1.1.1.1.9.e.M.+X@X+XXX.X|.|.@X7.2.tXtXtXtXtXtXZ.[.^.tXtXtXtXtXtXtXtXtXtXtXtXtXtXtXtX",
"tXtXtXtXtXtXtXtXtXtXtXtXtXtX0.!.; % - 4 6.2.1.1.1.1.1.4.!.7._.@X+X|.|.+XF.E.) / tXtXtXtXtXtX].&Xw.tXtXtXtXtXtXtXtXtXtXtXtXtXtXtX",
"tXtXtXtXtXtXtXtXtXtXtXtXtXX./.m %   4 % 3.1.1.2.2.1.1.1.3.W.E.N.XX.X|.@Xq.E.) ! = tXtXtXtXtX*.[.%X&.tXtXtXtXtXtXtXtXtXtXtXtXtXtX",
"tXtXtXtXtXtXtXtXtXtXtXtXm /.q.: % % 6 4  .1.3.4.3.3.1.1.1.3.E.Q.7.N.|.H.9.8.) ! 9 [ tXtXtXtXtX;.].&XtXtXtXtXtXtXtXtXtXtXtXtXtXtX",
"tXtXtXtXtXtXtXtXtXtXtX; Q.(.* ^ ; 4 7 4 ) 2.3.3.3.3.3.1.1.3.3.E.~.~.7.-.9.6./ ! ~ 6 ` tXtXtXtXtXJ [.b.tXtXtXtXtXtXtXtXtXtXtXtXtX",
"tXtXtXtXtXtXtXtXtXtX0.r./.X.: | ; 6 N 7 9 6.3.3.3.3.3.3.3.3.4.6.W.~.9 / 7 e./ ! | : 9 m tXtXtXtXtX@.M.tXtXtXtXtXtXtXtXtXtXtXtXtX",
"tXtXtXtXtXtXtX[ t./.t././.& 0 ..6 6 N N % 4.4.6.6.6.3.6.6.4.4.4.6.Q.9 / ! 5.1.^ ^ ~ : 0 0 tXtXtXtXtXq.G tXtXtXtXtXtXtXtXtXtXtXtX"
};
