/* XPM */
static char *result[] = {
/* columns rows colors chars-per-pixel */
"64 64 51 1 ",
"  c #525D69",
". c #5D676D",
"X c #5D686C",
"o c #5E6771",
"O c #5E6872",
"+ c #5B6779",
"@ c #5E697B",
"# c #636C6B",
"$ c #6E736D",
"% c #70766E",
"& c #747A6E",
"* c #606671",
"= c #646C72",
"- c #686F70",
"; c #657075",
": c #6B7373",
"> c #67717E",
", c #6C757C",
"< c #6E787B",
"1 c #717777",
"2 c #757B75",
"3 c #797F76",
"4 c #797F78",
"5 c #7C8176",
"6 c #7C8379",
"7 c #828776",
"8 c #848877",
"9 c #8B8E77",
"0 c #818679",
"q c #84897A",
"w c #8B8E7B",
"e c #8F9277",
"r c #8D927B",
"t c #9E9E77",
"y c #92957C",
"u c #979B7F",
"i c #9E9F7F",
"p c #A19E7C",
"a c #9EA17E",
"s c #A1A07E",
"d c #878E82",
"f c #8F9584",
"g c #939784",
"h c #949882",
"j c #9D9E81",
"k c #9B9E89",
"l c #A09F81",
"z c #9EA081",
"x c #9EA18D",
"c c #9EA290",
"v c #A1A282",
/* pixels */
"iiiipzjiiipjaipziiiiiijiiiiiiiiiiiiiiiiiijaiiiiiiiiiaiiiiiiiiiii",
"iiiiiiiiiijajiiiiiiiziajiiiiiiiiiiiijiiiiiiiiiiziiiijiiiiiiiiiii",
"iiiiiiiiiiiiiaiiiiiiiiipijiiiiiiiiiiiuiiiazpiiipjiiiiiiiijpijpii",
"iiiiijaiiiiiijiiiiiiiiiiisiiiiiiiiiiaiiiiijiiiijsiiiiiiiiizizjai",
"ijijpziiiiiiiiiiiipiiiiiiijaiiiiiizpjiiiiiiiiiiiiiiiiiiipjpjiiii",
"iaiiiiiiiiiiiiiiiijziiiiiiiipiiiiiijiiiiiiiiiiiiiiiiiiiizajaiiii",
"iiiiiiiiiiiiiziiiiiaiipziiiijiiiijjaiiiiiijaiiiiiaiijiiiiiiiiiii",
"iiiiiiiijiiiipjiiiijiijaiiiiziiiiapjaiiiiiiiiiijijiipziiiiiiiiii",
"iiiiiiiiapiiiiiiiiiiiipjiiiiiiiiiiiiipjiiiiiiiiaiaaaiiiaiiiiijii",
"iiiziiaizjiiiiiiiijiiijaiiiaiiiiiiiiiiziiiiiiiiaizz1*oo0zjiaiiii",
"iijpiiijiiiijaiijsiiiiiijiiiiiiiiziijaiiiiiiiijvtia2OOO7aapviiii",
"iiiiiiiiiiiipiiiiiiiiiiiiiiiliiiipjiiiiiiiiijsjjp&Xruaa5#qvjiiii",
"iiiiijsiiziijpziiiiiiijiiiiijiiiiiiiiiiiiiiiijjvt:@rlll3>6ivpiii",
"iiajiiiiipjiajiiiaiiiiaiiiiiaiiiiiiiiiiiiiiiial:=wuujjz3+0tjziii",
"iiiiiiiiiiiiiijaijiiiiiijzipziaaiziiiajiiiiiiii-orivtpi3+6zjiiji",
"iiiiiiiiiiiiiiiiiiiiialzz1*OOqzzpziiiiiiiijsiii:oriia5$0ghtviiii",
"iiiiiiiiziiiiiaiiiiiivptz1OOO7zspviijiiiiiiiiii:.yjzt2@0ttpviiii",
"iiiiiiiipjiiiijiiiiiijs&#wuaa5Xqvjiisiiiiiiiiiiyruajiyfujjiiiiii",
"iziiiiijiiiiiiiipiiizvt:;wpla5@6ivaiiiiiiiiiiiiipjiiiiiiiiiiiiii",
"jpiiiiisiiiiiiiijziiz:=wuuzaa2O6pjjiiiiiiiiijiiiziiiiiiiiiiiiiii",
"iiiijiiiiiaiiiiiiiiia-orilpsa3+6ijiiiiiiiiiiiiiiiiiiiiiiiiiiiiii",
"iiiiaiiijiiiiiiiiiiij:Orijp5:qghtjiiiiiiiiiiiiiaiviiiiiiiiiiiiii",
"iiiiiiiiiijiiiiiiiiii:oriji2+8tipiiiiiiiiiiiiizpiiiiiiiiiiiiiiii",
"iizpjiiiiisiiijaiiiiiyyuiiiyyuiijiijiiiiijiiiijiiiiiiiiiiiiiijii",
"ijaiijpiiiiiiiiiiiiiiiiiiiiiiiiisiiiiiiiiiiiiiiiiiiiiiiiiiiiiiii",
"iiiiiiziiiiiiiiiiiiiiiiiiiiiijiiiiiiiiiiiiiipjiiiiiiiiiiiiiiiiji",
"zjiiiiiiiiiiiiiiiiiiiiiiljiilijajziiiiiiiiiiziiijiiiiiiiiiiiiiii",
"ipiiiiiijiiiiiiiiiiiiiivjq222rzapziiiiiiaijiiiiiiiiiiiiialiiiiii",
"iiiiiaaiaiiiiiiiiiiiiipti1oOO0uspziiiiiaijsiiiiiiiiijjziijpjsiii",
"iiiipjijpiiiiiiiiiiiiji750qq756rlzpiiiijiiiiiiiiiizuvvzviajajiii",
"iiiijpzijiiiiiiiiiiiiji:+wzzv3+0iziiiiiiiiiiiiiivstisvsvajiiiiii",
"iiiiajiizjzlviiiiijiajt$Owzjar667wiiiiiiiiiiiiissv2#&&yspiiiiiii",
"iisjiiiiitippiiiiijiiit:+9utpsp6o3iiiiiiiiiiiiipek,o+ evvziiiiii",
"iiiiiiizi00kjiiiiiiiija860qhijj5*4iiiiijzjiiiiiv=*rww50ryuzjiiii",
"jiiiiijpi+;kzajaiiiiizpii1@diji6O3iiiiiijpiiiiiio*aitk+o*$tjiiii",
"iiiiiiaq823qqjzzziiiiaiaa02yijiw4wiiiiiiaiiiiiiu=:vipk<<>;zziiii",
"iaiiiij**zaX+ttipiiiiiiiiiiiiiiiiiiiiiiiiiiiiiajuusiiijuhhsiiiii",
"iiiiiizo*za22wdziiiiiiiaiiiiiiiiiiiiiiiiiiiiiiiijpiiajjpaspzajii",
"iziijiz*Ossss*@cziiiiiiiiiiiiiiziiiizpiiiiiiipiiazijiiiiiiiiiiii",
"ipjizrr:1aizuX+kpiiiiiiiiiiiiiijjaiijiiiiiiizjiijpiiiiiiiiiiiiii",
"iiija*Ozjipit+;ciiiiiiiipziiiiappjiiiiiiiiiiiiiiiiiijpiiiiiiiiii",
"iiiiiooapppwh$:jsiiiiiiijiiiiijijapizpiiiiiiiiiiiiiiziiiiiiiiiii",
"iiiiaOOaiuaX+taspsjijaajiiiiiiiijiziijiiiiiizijpiiiiiiiiiiiiiiii",
"iiiii=;zijp#=kzuvjiiijpiiiiiiiiiaiiiiiiiiajipjajsjiiiiiiiiiiiiii",
"iiaiiiiiiiijiiiziiajiiiajaiiiijiipzijsiiiiiiijaiiiijijaiiziiiiat",
"jiiiiiiisjiiiiijiiiiiipjiiiiiiiijjauujiiiiiiiiiiiiiaiiiiipjiiijt",
"iiiiiiiiiiiiiiipiiiiiijaiiiziipzi0OO=rjiiiisiiiiiiiiiiiiiiiiaijj",
"iiiiiiiiiiiiiiiiiiiiizpjiiipiijai0O*:uaiiiijiiiiiiiiiiiiiiiiiiii",
"iiiiiiiiiiiiiiiijpjpziiiipziiii5o5iiiiiijiiiiiiiiijpjpjiiiipzija",
"iiiiiiiiiiiziiiiaiajjiiiijiiiii6O5iiiiiipiiijiiiiiizaiziiiiiiiii",
"iiiiiiiiiiajiiiiiiiiiiiiiiiiijp6O6ziiiiiziiiaipziiiiiiiiiiiiiiii",
"aiiiiiiiiijpiiiiiiiiaiiiiiiiiii6o3jpjaiiiiiiiiiiiiiiiiiiiiiiiiii",
"jpijailiiiiiipjaiiiijiiiiiiiiiiij0O0iiiiiiiiiiiiiiipjziiiiiiijpz",
"ajiiiiiiiiiiajpjiiiiaiiiiiiiiiiip0O6iiiiiiiiiiiiiiiiiiiiiajiiiii",
"jiiiiiiiiijaiiziiijpiiiiiapiiiiii0O5iizjjiiiijpziijiiiiipjiiiiii",
"pziiiiiiiiiiiiiiiiziiiiiijjziiiii0o6iiipaiiiiajiiiaiiiiiiziiiiii",
"iiiiiiiiijiiiiijiiiiiiiiiiiiiziii0+6aiiiiiiiiiiiiiiiiiiiiiiiiiaz",
"iiiiiiiizpiiiiisiaiiiiiijiiiipjii0.5ziiiiiiiiiiiiiiiiiiiiiiiiisz",
"iijziiiiiiiiajiiijiiipziaiiiiiiiitziiiiiiiiiiiiiiiiipzjaiiiiiiai",
"iipjaiiiiiiiiiiiizpiijiiiiiiiiiiiijipiiizjpiiiiiiiiiijiiiiiiiiaz",
"iiiiiiijiiiiiiiiiiiiiiiiiipjiiiiiiiiiiijiiiajiiiipjaiiiiiiiiiiii",
"iiiiiipziiiiiiiiiiiiiiiiiiizajiiiiijiiiiiiijpiiiajpjiiiiiiiiiiii",
"iiiiiiiaiiiizpiiiiiiajiiiiiipziiiiiiiiiiiiiiziiiiaziiiiiiiiiiiii",
"iiiiiiijiiiiijiiiiizjpiiiiiiiiiiiiiiaiiiiiiiiiiiiijiiiizpjiiiiii"
};
