/* XPM */
static char *_ffd115a9d694341f3215d86a772750euXNIiNRbVBHK23Ij[] = {
/* columns rows colors chars-per-pixel */
"64 64 178 2 ",
"   c None",
".  c #433455",
"X  c #483756",
"o  c #463956",
"O  c #4B3957",
"+  c #453659",
"@  c #46395B",
"#  c #4A3B5B",
"$  c #523D59",
"%  c #4A3D62",
"&  c #4A415D",
"*  c #56425C",
"=  c #5D445C",
"-  c #564A5E",
";  c #5D485D",
":  c #61465D",
">  c #65495E",
",  c #694C5F",
"<  c #4C4264",
"1  c #4E4B63",
"2  c #4E436A",
"3  c #534365",
"4  c #5A4664",
"5  c #504C64",
"6  c #5C4F60",
"7  c #51456D",
"8  c #524D6B",
"9  c #5D4B6C",
"0  c #535065",
"q  c #5A5464",
"w  c #5F5A67",
"e  c #55576B",
"r  c #595D6B",
"t  c #524770",
"y  c #554A75",
"u  c #584F76",
"i  c #574D79",
"p  c #584E7A",
"a  c #575176",
"s  c #5B5274",
"d  c #5B5E71",
"f  c #5A517D",
"g  c #5D5C7C",
"h  c #654B62",
"j  c #6D4E60",
"k  c #624E68",
"l  c #635662",
"z  c #6F5061",
"x  c #655C66",
"c  c #695C64",
"v  c #60556B",
"b  c #745362",
"n  c #7A5664",
"m  c #765A64",
"M  c #7C5964",
"N  c #725E6C",
"B  c #605273",
"V  c #5E6473",
"C  c #5F627B",
"Z  c #6A6266",
"A  c #61656D",
"S  c #6D696C",
"D  c #716267",
"F  c #716668",
"G  c #736C6B",
"H  c #77736D",
"J  c #7A746D",
"K  c #656876",
"L  c #61667B",
"P  c #636C7B",
"I  c #6F7171",
"U  c #66747E",
"Y  c #68777F",
"T  c #787771",
"R  c #7A7C74",
"E  c #855D67",
"W  c #885F67",
"Q  c #846165",
"!  c #8A6467",
"~  c #84646C",
"^  c #8D6269",
"/  c #8C686D",
"(  c #92666A",
")  c #93696A",
"_  c #9B6F6C",
"`  c #9C706C",
"'  c #827D72",
"]  c #7F8074",
"[  c #848273",
"{  c #8E8D77",
"}  c #9DA07F",
"|  c #5E5583",
" . c #5F5884",
".. c #615D87",
"X. c #625A8B",
"o. c #665F92",
"O. c #626582",
"+. c #666E83",
"@. c #65628C",
"#. c #666A88",
"$. c #686C8D",
"%. c #677283",
"&. c #687484",
"*. c #6B7C83",
"=. c #6B758C",
"-. c #6E7E8A",
";. c #676292",
":. c #686791",
">. c #6B6D93",
",. c #6D7294",
"<. c #6F7895",
"1. c #6E8287",
"2. c #6E8288",
"3. c #72858F",
"4. c #71858D",
"5. c #70848B",
"6. c #72898B",
"7. c #738B8D",
"8. c #72888D",
"9. c #748B8F",
"0. c #758E8F",
"q. c #748D8E",
"w. c #738C8D",
"e. c #75908F",
"r. c #728393",
"t. c #728590",
"y. c #738295",
"u. c #738594",
"i. c #748596",
"p. c #748796",
"a. c #748694",
"s. c #748A91",
"d. c #768F92",
"f. c #768F90",
"g. c #758B94",
"h. c #758996",
"j. c #758997",
"k. c #768B97",
"l. c #778B97",
"z. c #768A97",
"x. c #768997",
"c. c #778D97",
"v. c #778D96",
"b. c #768A96",
"n. c #788E97",
"m. c #779291",
"M. c #779293",
"N. c #769090",
"B. c #779291",
"V. c #789392",
"C. c #789393",
"Z. c #789593",
"A. c #789097",
"S. c #799197",
"D. c #799297",
"F. c #7A9697",
"G. c #799695",
"H. c #799196",
"J. c #7B9996",
"K. c #7D9B97",
"L. c #7D9C97",
"P. c #7B9A96",
"I. c #799398",
"U. c #7A9398",
"Y. c #7A9598",
"T. c #7A9698",
"R. c #7B9798",
"E. c #7B9799",
"W. c #7A9598",
"Q. c #7B9898",
"!. c #7C9898",
"~. c #7D9B98",
"^. c #7D9D99",
"/. c #7E9D99",
"(. c #7D9E99",
"). c #7E9E99",
"_. c #7D9D99",
"`. c #9E9F80",
/* pixels */
"                                                          & 1 & 1 & 1 &                                                         ",
"                                                          V.).).).).).Z.        1 1 1 1 1 1 1 &                                 ",
"                                                        7 F.).).).).).M.*     5 w.U U U &.U 2.V                                 ",
"                                                      d ,.E.).).).).).Z.. %   5 U . . . . . d V                                 ",
"                                                    d ).,.E.).).).).).Z.. | t 5 U . . . . . d V                                 ",
"                                                  d ~.).$.P i.p.p.u.u.P . | ;.a U . . . . . d V                                 ",
"                                                V ).).T.@.P.).).).).).Z.. | ;.g *.& & # @ & V V                                 ",
"                                              d ).).T.b.,.F.).).).).^.M.. y  .a k.k.k.l.l.l.b.d                                 ",
"                                            d P.(.T.k.(.,.(.(.(.).).^.Z.. | f 7 o.o.o.o.o.o.o.t                                 ",
"                                          d ).).G.k.(.(.#.C y.y.y.y.y.P . X.o.y y y y y y i y %                                 ",
"                                        d ).).M.1.(.(.I.:.T.(.(.).).^.M.. p o.o.g X.f o.o.o.p                                   ",
"                                      d ).).~.-.(.(.7.k.,.T.(.(.).).).M.. y | o.g t 7 i i y 2                                   ",
"                                    V ).).M.4.).^.6.4.(.>.4.I.I.D.D.D.1.. | X.| L o.>.<.:.p p                                   ",
"                                  V ).).M.*.).).6.4.(.(.O.r.A.A.M.c.n.1.. | o.| 7 p p p p t 7 y                                 ",
"                                d Q.).Q.2.).(.F.c.(.(.M.:.E.(.E.).).).M.. i o.o.y y =.=.=.@.a o.t                               ",
"                              V ).).M.2.).).M.2.^.^.c.I.,.E.(.`.).).).D.. p | o.y t X.X.X.X.7 ;.;.t                             ",
"                            d ~.).T.*.).).D.n.).).b.T.).,.&.b.p.h.h.p.&.+ | | | | % | | t | t | ;.o.y                           ",
"                          V ).).T.l.).).I.n.).).2.f.).).O.f.E.E.Q.Q.Q.6.+ | o.| | | y  .y X.i |  .o.o.y                         ",
"                        V ).).T.l.).).I.D.).).4.f.).).l.>.E.).).(.(.^.Z.. t X.o.| | i % i t 7 % f X.o.o.y                       ",
"                      d ~.).E.l.).).I.n.).).1.M.).).p.T.,.T.).).(.(.^.h.. | | o.o.| | | % | i . % p X.o.;.t                     ",
"                    V P.).T.b.).(.A.I.(.).b.9.L.).l.T.).,.+.p.p.b.p.p.P + | X.| o.o. .| y % % . . % |  .o.o.t                   ",
"                  d ).).M.b.).L.I.I.(.(.c.T.).).l.T.).).O.F.).).).).).V.+ | o.X.i o.o.X.| | % . . + % f  .o.o.t                 ",
"                5 ).).Z.*.(.).9.8.(.(.2.k.(.).4.~.).).p.>.F.).).).).).V.. % o.o.| | o.o. .| p . . . . % |  .o.o.2               ",
"                e ).Z.*.).(.F.5.(.(.k.p.(.`.*.V.).P.Y ~.,.F.).).).).).V.. | | o.o. .| o.o. .| i + . . . % | X.o.2               ",
"                e Q.p.).).6.s.).(.k.T.(.).t.Q.).P.*.J.).>.,.,.,.,.,.,.$..  .o.p o.o. .p o.o.o.| f . . . . 2 < | t               ",
"                8 :.p.).6.6.).).k.T.(.(.*.Z.).).u.J.(.Q.8 X.o.o.o.;.o.X.. | o.o.p o.;.o.| o.o. .| f . . . . . @ %               ",
"                % X.y.I.6.).).1.e.(.(.*.Z.).L.&.).).L.>.2 X.o.o.o.o.o.X.. 2  .o.o.i o.o. .p o.o.| | f . . . . . .               ",
"                    P c.(.(.2.9.(.(.p.M.).).t.J.).Q.>.;.2 % 2 3 2 2 3 2 . | | o.o.o.i o.o.o.p o.o. .| p . . .                   ",
"                    -.).).1.9.).(.j.Q.^.(.p.Q.(.).>.o.o.2 . . . . . . . . | o.p X.o.o.p o.o.X.p o.o.X.| p . . #                 ",
"                  -.).).c.F.).).h.Q.^.^.p.).).~.:.;.o.X.@ . . . . . . . . | o.o.p o.o.o.i o.o.o.p o.o. .| p . . v               ",
"                e ).).2.w.).).*.Q.(.^.t.Q.).Q.>.;.o.X.@ . . * b b b b h . +  .o.o.f X.o.o.p o.o.X.p o.o.X.y . . .               ",
"                e ).c.Z.).).2.F.(.(.U J.(.).,.o.o.X.@ . . $ = , j j j j # . %  .o.o.f X.o.o.p o.o.o.p o.o. .@ . .               ",
"                e k.p.(.(.2.T.(.(.&.(.E.~.>.o.o.X.@ . . $ j z z W ^ ^ ^ E $ . + X.o.o.p X.o.o.i o.o.X.f o.o.| . .               ",
"                8 ;.p.(.*.M.(.(.p.E.(.E.>.o.o.X.@ . . . , z > b z z z z z : O . @ X.o.o.f X.o.o.p o.o.X.f o.p . .               ",
"                < y 2.&.M.(.(.*.(.(.`.>.o.o.X.@ . . j # n $ u K K K B 3 b b E O . @ X.;.o.f X.o.o.p o.o.o.p f + #               ",
"                    C T.(.(.=.(.(.T.:.o.o.X.# . . z ( X : | g @.$.#.| f > , ( E O . + | o.o.| X.o.o.p o.;.X.7                   ",
"                  1 V.).E.j.(.(.(.>.o.o.X.+ . . O ( ^ O b X.7 . . . 2 X.b M _ ^ $ O . @  .o.o.f X.o.X.f o.o.X.%                 ",
"                1 M.).).j.(.(.E.>.o.o.X.# . . . : ` ^ X : X.7 . . . 2 X.= : _ ^ $ h . . @ X.o.o.f X.o.o.p o.o.X.<               ",
"                e ).~.b.E.E.~.>.o.o. .% . . $ W b ` ^ O b X.7 . . . 2 X.b M _ ^ $ ^ E $ . @ | ;.o.p X.o.o.f o.o.7               ",
"                e ).p.~.`.~.>.o.o. .@ . . X j b > ` ^ X j X.7 . . . < X.> : _ ^ $ b b j . . @  .o.o.| X.o.X.p o.7               ",
"                e ,.p.).E.:.o.o.X.@ . . $ E ^ ) b ` ^ X b X.7 . . . 2 X.j , ` ^ $ W _ ( E $ . @ | o.o.| X.o.| < 7               ",
"                2 o.p.P.>.;.o.X.@ . O @ n M M n , ` ^ X , ..f O.*.O.p | , , _ ^ $ M M M n z = . @ | o.o.f X.p . .               ",
"                  % %.>.o.o.X.@ . @ M $ M M M M , ` ^ X , % f B ..g f 2 h j _ ^ $ n , > M b ^ > . @ X.o.o.f i .                 ",
"                    f o.o.X.@ . % M E $ W W E E z ` ^ X E : : : : : ; > E j _ ^ $ E , , E n ) ^ j . @  .o.o.t                   ",
"                    p o.X.@ . $ W ^ E O b b n ! , _ ^ X b b b b b b b b b > _ ^ $ b b b b , ) ^ W j . @ | ;.f                   ",
"                    @ % + 5 e m ^ ^ E $ b b b b , ` ^ X b b b n b b b b b : _ ^ $ b b b z , ) ^ ^ W % % @ % @                   ",
"                          *.).N / ^ ~ f ..@.X.@.u / / a f @.@.X.u @.@...f g ~ / B X.@...X...E / / / f g                         ",
"                          %.I.I.-.4.n.n.+.n.D.D.+.D.n.D.%.c.n.l.P I.n.p.&.D.n.-.-.D.U.%.D.D.n.t.=.n.n.+.                        ",
"                          f o.o.X.| o.o.y o.o.o.y o.o.o.i o.o.o.i o.o.X.p o.o.| | o.o.i o.o.o.X.f o.o.|                         ",
"                          p X.X.p | X.X.y X.X.X.t X.X.X.y X.X.X.t X.X.| i X.X.| | X.X.y X.X.X.| f X.X.i                         ",
"                              . . . . . . . . . . . + . . . . . . . . . . . . . . . . . . . . . . . & e                         ",
"                              = > h $ . . . . . X n E . . . . X . . . . . . n E # . . . . . = ; : : 0 V                         ",
"                              ! ^ ^ E . $ W ^ ^ b _ ^ . , $ % o.i X.t b ^ n _ ^ $ O E W ^ M E ^ ^ ^ 0 V                         ",
"                              _ ^ ^ E # n n b n , _ ^ O , X.p o.y >.o.7 $ : _ W $ , b n n , ) ^ ^ ^ 0 V                         ",
"                              _ ( W E $ E E E E j _ ^ X t o.p o.i >.o.g y h _ ( $ W ` ( E b ) ^ ^ ^ 5 K                         ",
"                              _ W ( E $ E E E W j _ ^ + X.o.L o.y >.o.p X.@ _ W $ E W W E n ) ^ ^ ^ 0 A                         ",
"                              _ ^ ^ E $ b ^ Q b , ` ^ @ o.;.f o.i ,.B K o.% _ ^ $ b Q ^ E , ) ^ ^ ^ 0 A                         ",
"                              _ ^ ^ E $ ^ ^ ^ ^ b _ ^ + o.;.C o.y <.k K o.% _ ^ $ ^ ^ ^ ^ n ) ^ ^ ! 0 V                         ",
"                              _ ^ ^ W O b , b j > _ ^ . i o.i o.i >.o.f | $ _ ^ $ z z z b > ) ^ ^ ^ & 5                         ",
"                              _ ^ ^ E $ ^ ^ ^ ^ b _ ^ @ 4 o.i o.y ,.o.p 4 z _ ^ $ ^ ^ ! ! n ) ^ ^ ^ 5 0                         ",
"                            o _ ^ ^ E O M m Q Q : _ W X , 3 i o.i @.X.3 h = _ ^ $ b Q m Q , ) ^ ^ ^ # r                         ",
"                              ! F m E - n m E M c _ ^ X G m j 9 4 9 , E D l Q G & H z E n c / M m Q 1 r                         ",
"                              # A ; z G l ] S c F b b ; R c D D D D D D Z ' c { q T H w 6 H = ' G - 0                           ",
"                                    S Z J     '               `.      `.    G     `.[ R [ R G     0                             "
};
